<svg xmlns="http://www.w3.org/2000/svg" xmlns:xlink="http://www.w3.org/1999/xlink" width="500" zoomAndPan="magnify" viewBox="0 0 375 374.999991" height="500" preserveAspectRatio="xMidYMid meet" version="1.2"><defs><clipPath id="d7d272658a"><path d="M 253 168 L 279.421875 168 L 279.421875 200 L 253 200 Z M 253 168 "/></clipPath><clipPath id="c87acfd49b"><path d="M 110 146 L 272 146 L 272 291.175781 L 110 291.175781 Z M 110 146 "/></clipPath><clipPath id="e56af0be48"><path d="M 223 84.175781 L 258 84.175781 L 258 108 L 223 108 Z M 223 84.175781 "/></clipPath><clipPath id="8f7633f129"><path d="M 224 84.175781 L 258 84.175781 L 258 108 L 224 108 Z M 224 84.175781 "/></clipPath><clipPath id="f7c7e7be6e"><path d="M 95.671875 136 L 131 136 L 131 252 L 95.671875 252 Z M 95.671875 136 "/></clipPath></defs><g id="9ef1026453"><rect x="0" width="375" y="0" height="374.999991" style="fill:#ffffff;fill-opacity:1;stroke:none;"/><rect x="0" width="375" y="0" height="374.999991" style="fill:#161616;fill-opacity:1;stroke:none;"/><g clip-rule="nonzero" clip-path="url(#d7d272658a)"><path style=" stroke:none;fill-rule:nonzero;fill:#161616;fill-opacity:1;" d="M 276.78125 172.289062 L 279.351562 172.171875 C 279.253906 172.675781 278.894531 174.460938 278.785156 174.925781 C 278.050781 177.949219 276.96875 180.878906 275.519531 183.632812 C 274.375 185.828125 272.910156 187.886719 271.171875 189.660156 C 266.4375 194.789062 260.175781 198.585938 253.289062 199.746094 C 253.308594 199.714844 253.328125 199.679688 253.347656 199.648438 C 260.761719 197.640625 266.71875 192.8125 271.035156 186.515625 C 273.058594 183.386719 274.308594 179.796875 275.039062 176.140625 C 275.816406 176.054688 276.585938 175.9375 277.347656 175.789062 L 277.578125 175.738281 L 275.433594 173.75 C 275.421875 173.882812 275.382812 174.136719 275.367188 174.273438 C 275.273438 174.894531 275.164062 175.519531 275.039062 176.140625 C 270.414062 176.644531 265.582031 176.011719 261.296875 174.277344 C 258.988281 173.410156 257.089844 171.691406 255.667969 169.746094 L 255.4375 169.433594 C 255.367188 169.328125 255.28125 169.234375 255.222656 169.121094 C 255.1875 169.023438 255.167969 168.933594 255.164062 168.839844 C 255.214844 168.832031 255.269531 168.824219 255.320312 168.816406 C 255.875 168.71875 256.421875 168.597656 256.957031 168.449219 C 257.328125 168.820312 257.699219 169.191406 258.089844 169.515625 C 259.136719 170.414062 260.253906 171.117188 261.53125 171.546875 C 261.960938 171.6875 262.421875 171.8125 262.859375 171.925781 C 264.683594 172.394531 266.554688 172.664062 268.433594 172.773438 C 271.007812 172.933594 273.605469 172.792969 276.148438 172.398438 C 276.292969 172.375 276.632812 172.3125 276.78125 172.289062 Z M 276.78125 172.289062 "/></g><path style=" stroke:none;fill-rule:nonzero;fill:#161616;fill-opacity:1;" d="M 277.578125 175.738281 L 277.347656 175.789062 C 276.585938 175.9375 275.816406 176.054688 275.039062 176.140625 C 275.164062 175.519531 275.273438 174.894531 275.367188 174.273438 C 275.382812 174.136719 275.421875 173.882812 275.429688 173.75 Z M 277.578125 175.738281 "/><path style=" stroke:none;fill-rule:nonzero;fill:#161616;fill-opacity:1;" d="M 275.53125 136.550781 L 275.460938 137.773438 C 275.945312 142.417969 275.355469 147.191406 273.664062 151.550781 C 270.660156 158.96875 264.921875 166.292969 256.957031 168.453125 C 256.8125 168.308594 256.671875 168.167969 256.53125 168.03125 C 256.199219 167.832031 255.863281 167.863281 255.398438 168.003906 C 255.238281 168.328125 255.144531 168.582031 255.164062 168.839844 C 251.183594 169.46875 247 168.921875 243.402344 167.058594 C 242.785156 166.75 241.933594 166.125 241.355469 165.730469 C 239.453125 164.363281 237.652344 162.832031 236.054688 161.105469 C 235.816406 160.847656 235.585938 160.589844 235.355469 160.328125 C 234.339844 158.238281 233.457031 156.078125 232.558594 153.917969 C 232.191406 153.070312 231.828125 152.226562 231.464844 151.382812 C 234.636719 156.101562 237.945312 160.1875 242.929688 163.464844 L 243.847656 164.066406 C 244.007812 164.175781 244.140625 164.25 244.277344 164.332031 C 245.605469 165.082031 247.105469 165.570312 248.613281 165.871094 C 252.738281 166.710938 257.058594 166.019531 260.671875 163.816406 C 264.367188 161.574219 267.253906 158.234375 269.554688 154.554688 C 271.902344 150.835938 273.402344 146.644531 273.910156 142.273438 C 274.023438 141.339844 274.09375 140.40625 274.128906 139.46875 C 273.890625 139.710938 273.648438 139.953125 273.394531 140.191406 C 270.988281 142.476562 267.894531 143.707031 264.640625 144.074219 C 264.324219 144.113281 263.898438 144.160156 263.609375 144.183594 C 263.417969 144.1875 262.789062 144.21875 262.582031 144.222656 C 261.636719 144.261719 260.425781 144.214844 259.480469 144.125 C 256.527344 143.792969 253.90625 142.597656 251.414062 141.058594 C 248.511719 139.355469 245.828125 137.210938 243.671875 134.613281 C 239.933594 130.246094 237.980469 124.730469 235.3125 119.757812 C 235.414062 119.613281 235.515625 119.46875 235.617188 119.324219 C 238.632812 123.828125 241.265625 128.621094 245.074219 132.472656 C 247.234375 134.683594 249.734375 136.539062 252.414062 138.085938 C 253.824219 138.914062 255.246094 139.738281 256.773438 140.3125 C 257.683594 140.652344 258.621094 140.925781 259.582031 141.078125 C 263.128906 141.566406 266.882812 141.476562 270.167969 139.972656 C 271.726562 139.28125 272.957031 138.28125 274.394531 137.300781 Z M 275.53125 136.550781 "/><path style=" stroke:none;fill-rule:nonzero;fill:#000000;fill-opacity:1;" d="M 275.039062 176.140625 C 274.308594 179.796875 273.058594 183.390625 271.035156 186.515625 C 266.71875 192.8125 260.761719 197.640625 253.347656 199.648438 C 253.398438 199.566406 253.445312 199.484375 253.492188 199.402344 C 255.164062 196.289062 255.847656 192.78125 256.230469 189.304688 C 256.507812 186.402344 256.453125 183.28125 255.449219 180.515625 C 255.339844 180.199219 255.210938 179.886719 255.070312 179.582031 C 254.6875 178.738281 254.199219 177.941406 253.59375 177.199219 C 252.683594 176.0625 251.613281 175.066406 250.257812 174.453125 C 249.632812 174.195312 248.96875 173.953125 248.347656 173.6875 C 243.808594 171.847656 240.566406 168.839844 237.871094 164.789062 C 236.921875 163.359375 236.105469 161.863281 235.355469 160.332031 C 235.585938 160.589844 235.816406 160.851562 236.054688 161.105469 C 237.652344 162.832031 239.453125 164.363281 241.355469 165.734375 C 241.933594 166.128906 242.785156 166.753906 243.402344 167.058594 C 247 168.925781 251.183594 169.472656 255.164062 168.839844 C 255.167969 168.933594 255.1875 169.027344 255.222656 169.121094 C 255.28125 169.238281 255.363281 169.332031 255.4375 169.4375 L 255.664062 169.746094 C 257.089844 171.695312 258.988281 173.414062 261.292969 174.28125 C 265.582031 176.015625 270.414062 176.644531 275.039062 176.140625 Z M 275.039062 176.140625 "/><path style=" stroke:none;fill-rule:nonzero;fill:#000000;fill-opacity:1;" d="M 274.128906 139.46875 C 274.097656 140.40625 274.027344 141.339844 273.914062 142.273438 C 273.402344 146.644531 271.902344 150.835938 269.558594 154.554688 C 267.253906 158.234375 264.367188 161.574219 260.671875 163.816406 C 257.0625 166.019531 252.738281 166.710938 248.613281 165.871094 C 247.105469 165.570312 245.605469 165.082031 244.277344 164.332031 C 244.140625 164.25 244.007812 164.175781 243.851562 164.066406 L 242.929688 163.464844 C 237.945312 160.1875 234.636719 156.101562 231.464844 151.382812 C 231.464844 151.378906 231.460938 151.378906 231.460938 151.378906 C 230.175781 148.417969 228.855469 145.472656 227.359375 142.609375 C 226.078125 140.492188 224.398438 138.355469 222.464844 136.285156 C 224.71875 133.847656 226.785156 131.25 228.816406 128.628906 C 230.941406 125.902344 233.140625 122.859375 235.316406 119.757812 C 237.984375 124.726562 239.9375 130.246094 243.671875 134.613281 C 245.828125 137.207031 248.511719 139.351562 251.414062 141.058594 C 253.910156 142.597656 256.527344 143.792969 259.484375 144.125 C 260.425781 144.214844 261.636719 144.261719 262.582031 144.222656 C 262.789062 144.21875 263.417969 144.1875 263.609375 144.183594 C 263.898438 144.160156 264.324219 144.109375 264.640625 144.074219 C 267.898438 143.707031 270.992188 142.472656 273.394531 140.1875 C 273.648438 139.953125 273.890625 139.710938 274.128906 139.46875 Z M 274.128906 139.46875 "/><g clip-rule="nonzero" clip-path="url(#c87acfd49b)"><path style=" stroke:none;fill-rule:nonzero;fill:#161616;fill-opacity:1;" d="M 271.074219 220.683594 C 271.15625 220.703125 271.210938 220.785156 271.203125 220.867188 C 269.222656 237.089844 262.921875 252.96875 252.082031 265.335938 C 243.6875 275.015625 232.777344 282.347656 220.910156 287.058594 C 211.121094 290.332031 200.683594 291.421875 190.410156 291.082031 C 162.605469 290.140625 137.9375 275.625 123.589844 251.972656 C 123.875 252.21875 124.160156 252.464844 124.449219 252.710938 C 124.035156 252.257812 123.625 251.804688 123.214844 251.347656 C 122.863281 250.757812 122.519531 250.164062 122.179688 249.566406 C 111.125 230.074219 106.847656 204.285156 112.628906 182.496094 C 115.578125 171.3125 121.488281 160.9375 129.507812 152.640625 C 131.714844 150.308594 134.109375 148.175781 136.476562 146.023438 C 136.484375 146.03125 136.488281 146.035156 136.496094 146.039062 C 134.484375 148.519531 132.363281 150.898438 130.425781 153.429688 C 123.292969 162.542969 118.105469 173.15625 115.707031 184.492188 C 114.113281 191.863281 113.636719 199.445312 113.960938 206.972656 C 114.90625 229.164062 121.875 252.152344 138.117188 267.960938 C 142.699219 272.460938 147.894531 276.371094 153.523438 279.460938 C 171.882812 289.597656 194.089844 290.515625 214.203125 285.867188 C 216.121094 285.402344 218.03125 284.910156 219.863281 284.25 C 226.898438 281.492188 233.59375 277.84375 239.648438 273.320312 C 243.066406 270.785156 246.21875 267.984375 249.097656 264.960938 C 251.835938 262.445312 254.378906 259.71875 256.753906 256.902344 L 256.660156 256.808594 C 256.660156 256.808594 256.609375 256.855469 256.605469 256.855469 C 255.839844 257.546875 255.066406 258.238281 254.285156 258.921875 C 261.304688 249.828125 266.289062 239.21875 269.238281 227.910156 C 269.773438 225.792969 270.308594 223.613281 270.742188 221.464844 C 270.859375 221.257812 270.976562 221.054688 271.089844 220.847656 C 271.121094 220.792969 271.113281 220.726562 271.074219 220.683594 Z M 271.074219 220.683594 "/></g><path style=" stroke:none;fill-rule:nonzero;fill:#000000;fill-opacity:1;" d="M 271.074219 220.683594 C 271.113281 220.726562 271.121094 220.792969 271.089844 220.84375 C 270.976562 221.050781 270.859375 221.257812 270.742188 221.460938 C 270.785156 221.246094 270.828125 221.03125 270.871094 220.8125 C 270.886719 220.722656 270.976562 220.664062 271.070312 220.683594 C 271.070312 220.683594 271.074219 220.683594 271.074219 220.683594 Z M 271.074219 220.683594 "/><path style=" stroke:none;fill-rule:nonzero;fill:#161616;fill-opacity:1;" d="M 271.074219 220.683594 C 271.074219 220.683594 271.070312 220.679688 271.070312 220.679688 C 270.976562 220.660156 270.886719 220.722656 270.871094 220.8125 C 270.828125 221.03125 270.785156 221.246094 270.742188 221.460938 C 265.070312 231.332031 255.851562 239.175781 245.085938 242.949219 C 232.003906 247.230469 217.855469 248.113281 204.3125 245.683594 C 187.660156 242.644531 171.5 235.191406 159.492188 223.066406 C 151.574219 215.105469 145.867188 204.265625 146.375 192.796875 C 146.566406 189.050781 147.363281 185.363281 148.457031 181.792969 C 149.242188 179.257812 150.222656 176.78125 151.425781 174.414062 C 152.117188 173.023438 152.835938 171.605469 153.5 170.214844 C 155.292969 166.519531 156.617188 162.519531 156.488281 158.359375 C 156.441406 156.390625 155.859375 154.460938 155.316406 152.566406 C 155.324219 152.566406 155.328125 152.566406 155.335938 152.5625 C 155.65625 153.433594 156.023438 154.402344 156.269531 155.238281 C 157.898438 160.34375 156.636719 165.898438 154.621094 170.710938 C 154.117188 171.917969 153.585938 173.125 153.070312 174.316406 C 151.039062 178.75 149.671875 183.496094 148.988281 188.320312 C 146.113281 207.589844 160.746094 223.019531 176.144531 232.160156 C 186.261719 238.078125 197.566406 241.972656 209.171875 243.570312 C 209.929688 244.117188 210.730469 244.621094 211.5625 245.023438 C 211.1875 244.597656 210.820312 244.171875 210.464844 243.738281 C 221.453125 245.09375 232.679688 244.390625 243.386719 241.414062 C 247.699219 240.222656 251.800781 238.296875 255.578125 235.90625 C 259.933594 233.136719 263.835938 229.679688 267.140625 225.707031 C 268.472656 224.117188 269.699219 222.4375 270.84375 220.695312 C 270.886719 220.628906 270.976562 220.609375 271.042969 220.652344 C 271.054688 220.664062 271.066406 220.671875 271.074219 220.683594 Z M 271.074219 220.683594 "/><path style=" stroke:none;fill-rule:nonzero;fill:#000000;fill-opacity:1;" d="M 270.742188 221.460938 C 270.308594 223.613281 269.773438 225.792969 269.238281 227.910156 C 266.289062 239.21875 261.304688 249.828125 254.285156 258.921875 C 247.914062 264.484375 240.976562 269.578125 233.015625 272.457031 C 222.539062 276.375 211.136719 276.902344 200.078125 275.988281 C 175.757812 274.175781 153.695312 260.894531 140.710938 240.179688 C 139.167969 237.667969 137.773438 235.0625 136.664062 232.335938 C 136.003906 230.691406 135.421875 229 134.890625 227.300781 C 133.125 221.589844 131.964844 215.683594 131.304688 209.738281 C 130.695312 204.039062 130.539062 198.246094 130.964844 192.503906 C 130.96875 192.492188 130.96875 192.480469 130.96875 192.46875 C 131.101562 190.828125 131.273438 189.191406 131.484375 187.5625 C 132.179688 182.414062 133.382812 177.339844 135.191406 172.453125 C 137.875 165.246094 141.964844 158.4375 147.609375 153.175781 L 148.074219 152.746094 C 148.703125 152.875 149.34375 152.960938 149.996094 153.007812 C 151.78125 153.132812 153.574219 152.957031 155.316406 152.566406 C 155.859375 154.460938 156.441406 156.390625 156.488281 158.359375 C 156.617188 162.519531 155.292969 166.519531 153.5 170.21875 C 152.835938 171.609375 152.117188 173.023438 151.425781 174.414062 C 150.222656 176.78125 149.242188 179.257812 148.457031 181.792969 C 147.363281 185.363281 146.566406 189.050781 146.375 192.796875 C 145.867188 204.265625 151.574219 215.109375 159.492188 223.066406 C 171.5 235.191406 187.660156 242.644531 204.3125 245.6875 C 217.855469 248.117188 232.003906 247.230469 245.085938 242.953125 C 255.851562 239.175781 265.070312 231.335938 270.742188 221.464844 Z M 270.742188 221.460938 "/><g clip-rule="nonzero" clip-path="url(#e56af0be48)"><path style=" stroke:none;fill-rule:nonzero;fill:#161616;fill-opacity:1;" d="M 257.460938 85.253906 C 258.03125 86.164062 257.785156 87.332031 257.21875 88.171875 C 256.742188 88.863281 256.273438 89.535156 255.785156 90.203125 C 254.496094 92 252.726562 94.421875 251.402344 96.1875 C 250.976562 96.769531 250.550781 97.363281 250.125 97.96875 L 250.03125 97.898438 C 252.667969 94.117188 255.269531 90.308594 256.746094 87.941406 C 257.445312 86.820312 257.304688 85.84375 256.746094 85.285156 C 256.0625 84.601562 254.933594 84.726562 254.375 85.003906 C 251.769531 86.308594 241.4375 93.734375 231.058594 101.777344 C 228.757812 103.5625 226.445312 105.355469 224.199219 107.089844 C 223.820312 106.796875 223.4375 106.507812 223.050781 106.226562 C 229.109375 101.28125 235.328125 96.539062 241.84375 92.210938 C 245.285156 89.921875 248.734375 87.652344 252.28125 85.519531 C 252.925781 85.140625 253.582031 84.765625 254.265625 84.441406 C 255.335938 83.984375 256.816406 84.175781 257.460938 85.253906 Z M 257.460938 85.253906 "/></g><g clip-rule="nonzero" clip-path="url(#8f7633f129)"><path style=" stroke:none;fill-rule:nonzero;fill:#161616;fill-opacity:1;" d="M 256.746094 85.285156 C 257.304688 85.84375 257.445312 86.824219 256.746094 87.941406 C 255.269531 90.308594 252.667969 94.121094 250.03125 97.902344 C 249.828125 98.1875 249.625 98.476562 249.425781 98.765625 L 249.355469 98.714844 C 249.363281 98.707031 249.355469 98.6875 249.339844 98.691406 C 250.4375 97.140625 251.476562 95.550781 252.480469 93.933594 C 253.734375 91.941406 255.179688 89.664062 256.324219 87.625 C 257.152344 86.214844 256.316406 84.90625 254.644531 85.492188 C 253.351562 86.21875 252.164062 87.128906 250.957031 87.992188 C 245.738281 91.9375 240.644531 96.09375 235.5 100.179688 L 235.148438 100.121094 C 235.007812 100.097656 234.945312 100.296875 235.066406 100.363281 C 235.105469 100.382812 235.144531 100.40625 235.1875 100.429688 C 231.941406 103.003906 228.671875 105.550781 225.339844 108 C 224.964844 107.691406 224.585938 107.390625 224.199219 107.09375 C 226.445312 105.355469 228.757812 103.5625 231.058594 101.78125 C 241.4375 93.734375 251.769531 86.308594 254.375 85.003906 C 254.933594 84.726562 256.0625 84.601562 256.746094 85.285156 Z M 256.746094 85.285156 "/></g><path style=" stroke:none;fill-rule:nonzero;fill:#000000;fill-opacity:1;" d="M 256.660156 256.808594 L 256.753906 256.898438 C 254.378906 259.714844 251.832031 262.445312 249.097656 264.960938 C 250.9375 263.035156 252.664062 261.019531 254.285156 258.921875 C 255.066406 258.238281 255.839844 257.546875 256.605469 256.855469 C 256.609375 256.855469 256.660156 256.808594 256.660156 256.808594 Z M 256.660156 256.808594 "/><path style=" stroke:none;fill-rule:nonzero;fill:#000000;fill-opacity:1;" d="M 256.53125 168.03125 C 256.671875 168.167969 256.8125 168.308594 256.957031 168.453125 C 256.421875 168.597656 255.875 168.722656 255.320312 168.816406 C 255.269531 168.824219 255.214844 168.835938 255.164062 168.839844 C 255.144531 168.582031 255.238281 168.328125 255.402344 168.003906 C 255.863281 167.863281 256.199219 167.832031 256.53125 168.03125 Z M 256.53125 168.03125 "/><path style=" stroke:none;fill-rule:nonzero;fill:#000000;fill-opacity:1;" d="M 254.644531 85.492188 C 256.316406 84.90625 257.152344 86.214844 256.324219 87.625 C 255.179688 89.664062 253.738281 91.941406 252.480469 93.933594 C 251.476562 95.550781 250.4375 97.140625 249.339844 98.691406 C 248.742188 98.882812 248.160156 99.085938 247.574219 99.261719 C 243.53125 100.558594 239.671875 100.839844 235.5 100.179688 C 240.644531 96.09375 245.738281 91.9375 250.953125 87.992188 C 252.164062 87.128906 253.351562 86.21875 254.644531 85.492188 Z M 254.644531 85.492188 "/><path style=" stroke:none;fill-rule:nonzero;fill:#000000;fill-opacity:1;" d="M 255.449219 180.515625 C 256.453125 183.28125 256.507812 186.402344 256.230469 189.304688 C 255.847656 192.78125 255.164062 196.285156 253.492188 199.402344 C 253.445312 199.484375 253.398438 199.566406 253.347656 199.648438 C 253.105469 199.714844 252.859375 199.777344 252.613281 199.839844 C 254.921875 195.925781 257.234375 186.625 255.078125 180.648438 L 255.449219 180.511719 Z M 255.449219 180.515625 "/><path style=" stroke:none;fill-rule:nonzero;fill:#000000;fill-opacity:1;" d="M 255.449219 180.515625 L 255.078125 180.648438 C 254.964844 180.335938 254.839844 180.039062 254.703125 179.746094 L 255.070312 179.582031 C 255.210938 179.886719 255.339844 180.199219 255.449219 180.515625 Z M 255.449219 180.515625 "/><path style=" stroke:none;fill-rule:nonzero;fill:#000000;fill-opacity:1;" d="M 255.078125 180.648438 C 257.234375 186.625 254.921875 195.925781 252.613281 199.839844 C 252.566406 199.851562 252.515625 199.863281 252.46875 199.875 C 252.511719 199.867188 252.558594 199.859375 252.605469 199.855469 C 252.511719 200.007812 252.421875 200.15625 252.328125 200.292969 C 250.605469 202.878906 248.378906 204.933594 245.96875 206.457031 L 245.9375 205.800781 C 245.863281 205.808594 245.78125 205.816406 245.703125 205.820312 C 248.441406 204.0625 250.667969 201.527344 252.355469 198.726562 C 254.667969 194.703125 255.769531 187.777344 255.0625 183.195312 C 254.59375 180.058594 252.761719 176.832031 249.835938 175.4375 C 247.214844 174.511719 244.640625 173.410156 242.371094 171.769531 C 242.347656 171.75 242.320312 171.730469 242.296875 171.714844 C 242.636719 171.660156 242.835938 171.636719 242.835938 171.636719 C 245.488281 172.617188 247.863281 174.433594 249.757812 174.769531 C 250.550781 175.144531 251.273438 175.644531 251.902344 176.261719 C 252.71875 177.054688 254.070312 178.402344 254.703125 179.746094 C 254.839844 180.035156 254.964844 180.335938 255.078125 180.648438 Z M 255.078125 180.648438 "/><path style=" stroke:none;fill-rule:nonzero;fill:#161616;fill-opacity:1;" d="M 255.0625 183.195312 C 255.769531 187.777344 254.667969 194.703125 252.355469 198.726562 C 250.667969 201.527344 248.441406 204.0625 245.703125 205.820312 C 245.136719 205.863281 244.546875 205.867188 243.957031 205.851562 C 241.929688 205.789062 239.90625 205.480469 237.949219 204.917969 C 235.3125 204.164062 232.832031 202.867188 230.691406 201.132812 C 233.996094 204.476562 238.449219 206.527344 243.085938 207.238281 C 241.582031 207.914062 239.996094 208.402344 238.371094 208.664062 C 235.808594 208.945312 233.035156 208.507812 230.417969 208.316406 C 228.40625 208.152344 226.398438 207.980469 224.386719 207.828125 C 223.910156 207.273438 223.289062 206.359375 223.011719 205.1875 C 222.3125 202.25 221.265625 194.09375 226.78125 184.21875 C 227.867188 182.269531 233.386719 174.015625 240.042969 172.199219 C 240.96875 171.945312 241.789062 171.792969 242.296875 171.714844 C 242.324219 171.730469 242.347656 171.75 242.371094 171.769531 C 244.644531 173.410156 247.214844 174.511719 249.835938 175.4375 C 252.761719 176.832031 254.59375 180.058594 255.0625 183.195312 Z M 248.972656 182.332031 C 248.988281 182.199219 248.890625 182.078125 248.761719 182.0625 C 248.402344 182.019531 248.078125 182.035156 247.726562 182.113281 C 246.464844 182.367188 245.914062 183.699219 246.242188 184.894531 C 246.304688 185.097656 246.582031 185.117188 246.6875 184.9375 C 247.042969 184.511719 247.269531 183.960938 247.597656 183.554688 C 247.71875 183.421875 247.910156 183.273438 248.148438 183.105469 C 248.390625 182.933594 248.679688 182.742188 248.917969 182.457031 C 248.945312 182.421875 248.964844 182.378906 248.972656 182.332031 Z M 248.972656 182.332031 "/><path style=" stroke:none;fill-rule:nonzero;fill:#161616;fill-opacity:1;" d="M 255.070312 179.582031 L 254.703125 179.746094 C 254.070312 178.40625 252.71875 177.058594 251.902344 176.261719 C 251.273438 175.648438 250.550781 175.148438 249.757812 174.773438 C 247.863281 174.433594 245.488281 172.617188 242.835938 171.636719 C 242.835938 171.636719 242.636719 171.660156 242.296875 171.714844 C 237.773438 168.398438 234.53125 163.65625 231.96875 158.734375 C 230.25 155.320312 228.113281 151.203125 226.355469 147.800781 C 225.75 146.636719 225.109375 145.414062 224.460938 144.277344 C 223.820312 143.234375 223 142.171875 222.195312 141.207031 C 221.480469 140.378906 220.738281 139.550781 219.96875 138.734375 C 220.25 138.550781 220.507812 138.332031 220.734375 138.085938 C 221.324219 137.496094 221.902344 136.898438 222.464844 136.285156 C 224.398438 138.355469 226.078125 140.496094 227.359375 142.613281 C 228.855469 145.472656 230.175781 148.421875 231.460938 151.378906 C 230.890625 150.535156 230.332031 149.671875 229.761719 148.789062 L 228.546875 149.476562 C 230.414062 153.316406 232.539062 157.089844 235.355469 160.332031 C 236.105469 161.863281 236.921875 163.359375 237.875 164.789062 C 240.566406 168.839844 243.808594 171.847656 248.347656 173.6875 C 248.96875 173.953125 249.632812 174.195312 250.257812 174.453125 C 251.613281 175.066406 252.683594 176.0625 253.59375 177.199219 C 254.199219 177.941406 254.6875 178.738281 255.070312 179.582031 Z M 255.070312 179.582031 "/><path style=" stroke:none;fill-rule:nonzero;fill:#000000;fill-opacity:1;" d="M 253.347656 199.648438 C 253.328125 199.683594 253.308594 199.714844 253.289062 199.746094 C 253.0625 199.785156 252.832031 199.820312 252.605469 199.855469 C 252.605469 199.847656 252.609375 199.84375 252.613281 199.839844 C 252.859375 199.777344 253.105469 199.714844 253.347656 199.648438 Z M 253.347656 199.648438 "/><path style=" stroke:none;fill-rule:nonzero;fill:#000000;fill-opacity:1;" d="M 252.605469 199.855469 C 252.832031 199.820312 253.0625 199.785156 253.289062 199.746094 C 253 200.230469 252.695312 200.71875 252.386719 201.183594 C 250.734375 203.699219 248.570312 205.898438 246.046875 207.554688 L 246.015625 207.503906 L 245.96875 206.457031 C 248.378906 204.933594 250.605469 202.878906 252.328125 200.292969 C 252.421875 200.15625 252.511719 200.007812 252.605469 199.855469 Z M 252.605469 199.855469 "/><path style=" stroke:none;fill-rule:nonzero;fill:#000000;fill-opacity:1;" d="M 252.613281 199.839844 C 252.609375 199.84375 252.605469 199.847656 252.605469 199.855469 C 252.558594 199.859375 252.511719 199.867188 252.46875 199.875 C 252.515625 199.863281 252.566406 199.851562 252.613281 199.839844 Z M 252.613281 199.839844 "/><path style=" stroke:none;fill-rule:nonzero;fill:#161616;fill-opacity:1;" d="M 250.03125 97.902344 L 250.125 97.96875 C 247.742188 101.363281 245.34375 105.09375 243.085938 108.460938 C 240.738281 111.867188 238.195312 115.632812 235.617188 119.324219 C 235.433594 119.042969 235.246094 118.769531 235.054688 118.492188 C 237.425781 115.261719 239.703125 112.164062 241.667969 109.605469 C 242.441406 108.597656 245.894531 103.808594 249.425781 98.765625 C 249.625 98.476562 249.828125 98.1875 250.03125 97.902344 Z M 250.03125 97.902344 "/><path style=" stroke:none;fill-rule:nonzero;fill:#161616;fill-opacity:1;" d="M 249.355469 98.714844 L 249.425781 98.765625 C 245.894531 103.808594 242.441406 108.597656 241.667969 109.605469 C 239.703125 112.164062 237.425781 115.261719 235.054688 118.492188 C 234.871094 118.222656 234.683594 117.953125 234.492188 117.6875 C 235.539062 116.324219 236.597656 114.980469 237.660156 113.660156 C 238.519531 112.585938 239.523438 111.363281 240.472656 110.21875 C 240.691406 110.070312 240.90625 109.917969 241.117188 109.757812 C 240.992188 109.800781 240.871094 109.847656 240.746094 109.890625 C 241.03125 109.542969 241.3125 109.203125 241.578125 108.882812 C 243.839844 106.058594 246.203125 102.984375 248.339844 100.070312 C 248.65625 99.644531 248.96875 99.214844 249.277344 98.78125 C 249.304688 98.757812 249.328125 98.738281 249.355469 98.714844 Z M 249.355469 98.714844 "/><path style=" stroke:none;fill-rule:nonzero;fill:#161616;fill-opacity:1;" d="M 254.285156 258.921875 C 252.664062 261.019531 250.9375 263.035156 249.097656 264.960938 C 244.632812 269.066406 239.65625 272.609375 234.078125 275.050781 C 223.371094 279.863281 211.378906 280.914062 199.777344 280.195312 C 180.292969 279.027344 162.335938 270.910156 149.175781 256.378906 C 145.050781 251.84375 141.476562 246.804688 138.601562 241.386719 C 136.28125 237.085938 134.53125 232.464844 133.5 227.679688 C 130.964844 216.183594 130.011719 204.257812 130.964844 192.503906 C 130.539062 198.246094 130.695312 204.039062 131.304688 209.738281 C 131.964844 215.683594 133.125 221.589844 134.890625 227.300781 C 135.425781 229 136.003906 230.691406 136.664062 232.335938 C 137.773438 235.0625 139.167969 237.667969 140.710938 240.179688 C 153.695312 260.894531 175.757812 274.175781 200.078125 275.988281 C 211.136719 276.902344 222.539062 276.375 233.015625 272.457031 C 240.976562 269.578125 247.917969 264.484375 254.285156 258.921875 Z M 254.285156 258.921875 "/><path style=" stroke:none;fill-rule:nonzero;fill:#000000;fill-opacity:1;" d="M 249.339844 98.691406 C 249.355469 98.6875 249.367188 98.707031 249.355469 98.714844 C 249.328125 98.738281 249.304688 98.757812 249.277344 98.78125 C 249.300781 98.75 249.320312 98.722656 249.339844 98.691406 Z M 249.339844 98.691406 "/><path style=" stroke:none;fill-rule:nonzero;fill:#000000;fill-opacity:1;" d="M 249.339844 98.691406 C 249.320312 98.722656 249.296875 98.75 249.277344 98.78125 C 246.378906 101.199219 242.355469 102.195312 238.644531 101.589844 C 237.433594 101.382812 236.253906 101.007812 235.1875 100.429688 C 235.292969 100.34375 235.398438 100.261719 235.5 100.179688 C 239.675781 100.839844 243.53125 100.558594 247.574219 99.261719 C 248.160156 99.085938 248.742188 98.882812 249.339844 98.691406 Z M 249.339844 98.691406 "/><path style=" stroke:none;fill-rule:nonzero;fill:#000000;fill-opacity:1;" d="M 248.761719 182.0625 C 248.890625 182.078125 248.988281 182.199219 248.972656 182.332031 C 248.964844 182.378906 248.945312 182.421875 248.917969 182.457031 C 248.679688 182.742188 248.390625 182.933594 248.152344 183.105469 C 247.910156 183.273438 247.71875 183.421875 247.597656 183.554688 C 247.269531 183.960938 247.042969 184.511719 246.6875 184.9375 C 246.582031 185.117188 246.304688 185.097656 246.242188 184.894531 C 245.914062 183.699219 246.464844 182.367188 247.726562 182.113281 C 248.078125 182.035156 248.402344 182.019531 248.761719 182.0625 Z M 248.761719 182.0625 "/><path style=" stroke:none;fill-rule:nonzero;fill:#000000;fill-opacity:1;" d="M 249.277344 98.78125 C 248.96875 99.214844 248.65625 99.644531 248.335938 100.070312 C 246.203125 102.984375 243.839844 106.058594 241.578125 108.882812 C 241.3125 109.203125 241.03125 109.542969 240.746094 109.890625 C 237.46875 111.039062 234.015625 112.113281 230.542969 112.609375 C 230.480469 112.617188 230.414062 112.625 230.351562 112.636719 L 230.347656 112.636719 C 228.632812 112.859375 226.921875 113.066406 225.1875 112.882812 C 223.414062 112.671875 221.664062 112.269531 219.914062 111.886719 C 221.246094 110.941406 222.527344 110.027344 223.726562 109.171875 C 224.246094 108.792969 224.769531 108.417969 225.285156 108.035156 C 225.304688 108.023438 225.324219 108.011719 225.339844 108 C 228.671875 105.550781 231.941406 103.003906 235.1875 100.429688 C 236.253906 101.007812 237.433594 101.382812 238.644531 101.589844 C 242.355469 102.195312 246.378906 101.199219 249.277344 98.78125 Z M 249.277344 98.78125 "/><path style=" stroke:none;fill-rule:nonzero;fill:#000000;fill-opacity:1;" d="M 234.078125 275.050781 C 239.660156 272.609375 244.632812 269.066406 249.097656 264.960938 C 246.214844 267.984375 243.066406 270.78125 239.644531 273.320312 C 233.589844 277.84375 226.894531 281.492188 219.863281 284.25 C 218.03125 284.90625 216.121094 285.402344 214.203125 285.867188 C 194.089844 290.515625 171.882812 289.597656 153.523438 279.460938 C 147.894531 276.371094 142.699219 272.460938 138.117188 267.960938 C 121.875 252.152344 114.90625 229.164062 113.960938 206.96875 C 113.632812 199.441406 114.113281 191.863281 115.707031 184.492188 C 118.105469 173.15625 123.292969 162.539062 130.425781 153.429688 C 132.363281 150.898438 134.484375 148.519531 136.496094 146.039062 C 136.53125 146.070312 136.570312 146.105469 136.605469 146.132812 C 139.042969 148.316406 141.773438 150.417969 144.816406 151.71875 C 139.253906 159.433594 135.429688 168.277344 133.269531 177.515625 C 132.503906 180.832031 131.914062 184.1875 131.484375 187.5625 C 131.261719 189.191406 131.089844 190.828125 130.96875 192.46875 C 130.96875 192.480469 130.96875 192.492188 130.964844 192.503906 C 130.011719 204.257812 130.964844 216.183594 133.5 227.679688 C 134.53125 232.464844 136.28125 237.085938 138.601562 241.386719 C 141.476562 246.804688 145.050781 251.839844 149.175781 256.378906 C 162.335938 270.910156 180.292969 279.027344 199.777344 280.195312 C 211.378906 280.914062 223.371094 279.863281 234.078125 275.046875 Z M 234.078125 275.050781 "/><path style=" stroke:none;fill-rule:nonzero;fill:#161616;fill-opacity:1;" d="M 246.015625 207.503906 L 246.046875 207.554688 C 245.015625 208.234375 243.921875 208.820312 242.777344 209.300781 C 240.796875 210.136719 238.648438 210.785156 236.484375 210.789062 C 231.671875 210.785156 226.902344 210.34375 222.101562 210.285156 C 219.707031 210.234375 216.335938 210.089844 213.992188 210.195312 C 211.324219 210.292969 208.621094 210.496094 205.964844 210.820312 C 205.898438 210.828125 205.828125 210.835938 205.761719 210.84375 C 205.921875 210.445312 206.089844 210.050781 206.257812 209.660156 C 205.804688 210.066406 205.371094 210.496094 204.964844 210.945312 C 201.273438 211.449219 197.742188 212.40625 194.082031 213.265625 C 193.085938 213.492188 191.96875 213.652344 190.964844 213.828125 C 184.453125 214.875 177.796875 215.199219 171.4375 213.105469 C 169.230469 212.277344 167.183594 211.21875 165.207031 209.925781 C 163.804688 208.984375 162.445312 207.929688 161.441406 206.507812 C 159.128906 203.09375 157.996094 198.953125 157.902344 194.855469 C 157.808594 192.085938 158.195312 189.332031 158.511719 186.59375 C 158.816406 190.632812 158.832031 194.738281 160.097656 198.617188 C 160.6875 200.480469 161.519531 202.257812 162.601562 203.878906 C 162.960938 204.382812 163.300781 204.898438 163.722656 205.351562 C 164.101562 205.765625 164.582031 206.152344 165.082031 206.519531 C 166.652344 207.644531 168.402344 208.523438 170.183594 209.300781 C 171.363281 209.816406 172.539062 210.238281 173.789062 210.5 C 180.078125 211.992188 186.59375 211.234375 192.910156 210.117188 C 195.714844 209.53125 198.582031 208.746094 201.453125 208.273438 C 205.582031 207.570312 209.75 207.328125 213.941406 207.292969 C 217.433594 207.339844 220.910156 207.558594 224.386719 207.828125 C 224.65625 208.140625 224.878906 208.339844 224.964844 208.402344 C 225.941406 209.097656 227.003906 209.195312 229.851562 209.378906 C 234.1875 209.65625 236.359375 209.761719 237.949219 209.519531 C 240.027344 209.203125 242.222656 208.492188 244.335938 207.394531 C 244.894531 207.449219 245.453125 207.484375 246.015625 207.503906 Z M 246.015625 207.503906 "/><path style=" stroke:none;fill-rule:nonzero;fill:#000000;fill-opacity:1;" d="M 245.96875 206.457031 L 246.015625 207.503906 C 245.457031 207.484375 244.894531 207.449219 244.335938 207.394531 C 244.886719 207.109375 245.433594 206.796875 245.96875 206.457031 Z M 245.96875 206.457031 "/><path style=" stroke:none;fill-rule:nonzero;fill:#000000;fill-opacity:1;" d="M 245.9375 205.800781 L 245.96875 206.457031 C 245.429688 206.796875 244.886719 207.109375 244.335938 207.394531 C 243.917969 207.351562 243.503906 207.300781 243.089844 207.238281 C 243.960938 206.847656 244.804688 206.390625 245.609375 205.882812 C 245.640625 205.859375 245.671875 205.839844 245.703125 205.820312 C 245.78125 205.816406 245.859375 205.808594 245.9375 205.800781 Z M 245.9375 205.800781 "/><path style=" stroke:none;fill-rule:nonzero;fill:#000000;fill-opacity:1;" d="M 245.703125 205.820312 C 245.671875 205.839844 245.640625 205.863281 245.609375 205.882812 C 244.804688 206.390625 243.960938 206.847656 243.089844 207.238281 L 243.085938 207.238281 C 238.449219 206.527344 233.996094 204.476562 230.691406 201.132812 C 232.832031 202.867188 235.3125 204.164062 237.949219 204.917969 C 239.90625 205.480469 241.929688 205.789062 243.957031 205.855469 C 244.546875 205.871094 245.136719 205.863281 245.703125 205.820312 Z M 245.703125 205.820312 "/><path style=" stroke:none;fill-rule:nonzero;fill:#000000;fill-opacity:1;" d="M 243.089844 207.238281 C 243.503906 207.300781 243.917969 207.351562 244.335938 207.394531 C 242.222656 208.492188 240.027344 209.203125 237.949219 209.519531 C 236.359375 209.761719 234.1875 209.652344 229.851562 209.378906 C 227.003906 209.199219 225.945312 209.097656 224.964844 208.402344 C 224.878906 208.339844 224.65625 208.140625 224.386719 207.828125 C 226.398438 207.980469 228.40625 208.152344 230.417969 208.316406 C 233.035156 208.507812 235.808594 208.945312 238.371094 208.664062 C 239.996094 208.402344 241.582031 207.914062 243.085938 207.238281 Z M 243.089844 207.238281 "/><path style=" stroke:none;fill-rule:nonzero;fill:#000000;fill-opacity:1;" d="M 242.296875 171.714844 C 241.789062 171.792969 240.96875 171.945312 240.042969 172.195312 C 233.386719 174.015625 227.867188 182.269531 226.78125 184.21875 C 221.265625 194.09375 222.3125 202.25 223.011719 205.183594 C 223.289062 206.359375 223.914062 207.273438 224.386719 207.828125 C 220.914062 207.558594 217.433594 207.339844 213.941406 207.292969 C 209.753906 207.324219 205.585938 207.566406 201.453125 208.273438 C 198.582031 208.746094 195.714844 209.53125 192.910156 210.117188 C 186.59375 211.234375 180.082031 211.992188 173.792969 210.496094 C 172.539062 210.238281 171.367188 209.816406 170.1875 209.296875 C 168.402344 208.519531 166.65625 207.644531 165.082031 206.519531 C 164.585938 206.152344 164.105469 205.765625 163.722656 205.351562 C 163.300781 204.898438 162.960938 204.382812 162.601562 203.878906 C 161.519531 202.257812 160.6875 200.476562 160.101562 198.617188 C 158.832031 194.738281 158.816406 190.632812 158.515625 186.59375 C 158.195312 189.332031 157.808594 192.082031 157.90625 194.855469 C 157.996094 198.949219 159.128906 203.09375 161.445312 206.507812 C 162.445312 207.929688 163.804688 208.984375 165.207031 209.925781 C 167.183594 211.21875 169.234375 212.273438 171.441406 213.105469 C 177.800781 215.199219 184.453125 214.875 190.96875 213.828125 C 191.96875 213.652344 193.089844 213.492188 194.082031 213.261719 C 197.746094 212.40625 201.273438 211.449219 204.964844 210.945312 C 201.523438 214.730469 199.71875 219.949219 199.699219 225.054688 C 199.683594 231.972656 202.976562 238.707031 208.367188 242.964844 C 208.632812 243.171875 208.898438 243.375 209.171875 243.570312 C 197.566406 241.972656 186.261719 238.078125 176.144531 232.160156 C 160.746094 223.019531 146.113281 207.589844 148.992188 188.320312 C 149.675781 183.496094 151.042969 178.75 153.070312 174.316406 C 153.585938 173.125 154.121094 171.917969 154.621094 170.710938 C 156.636719 165.898438 157.898438 160.34375 156.269531 155.238281 C 156.023438 154.402344 155.65625 153.433594 155.335938 152.5625 C 156.035156 152.40625 156.730469 152.214844 157.410156 151.996094 C 157.4375 151.988281 157.460938 151.960938 157.457031 151.925781 C 157.457031 151.886719 157.425781 151.859375 157.386719 151.859375 C 155.453125 151.917969 153.507812 151.925781 151.613281 151.636719 C 149.695312 151.386719 147.917969 150.753906 146.253906 149.878906 L 146.191406 149.824219 L 146.179688 149.839844 C 143.789062 148.574219 141.636719 146.804688 139.640625 144.953125 C 138.972656 144.335938 138.226562 143.621094 137.585938 142.988281 C 133.921875 139.140625 131.300781 133.289062 129.691406 128.226562 C 129.210938 126.648438 128.789062 125.015625 128.511719 123.390625 C 133.476562 123.09375 138.507812 123.515625 143.394531 124.378906 C 146.683594 125.015625 150.144531 125.773438 152.988281 127.503906 C 157.546875 130.320312 160.75 134.15625 163.335938 138.8125 C 163.351562 138.839844 163.382812 138.855469 163.414062 138.847656 C 163.449219 138.839844 163.472656 138.800781 163.464844 138.761719 C 163.054688 137.015625 162.429688 135.304688 161.578125 133.691406 C 160.859375 132.332031 159.964844 131.011719 158.933594 129.792969 L 158.976562 129.757812 C 161.222656 128.195312 163.519531 126.722656 165.914062 125.453125 C 171.792969 122.292969 178.398438 120.292969 185.09375 120.398438 C 191.035156 120.507812 196.847656 122.28125 202.269531 125.066406 C 202.0625 126 202.136719 126.988281 202.40625 127.957031 C 202.601562 128.796875 203.070312 129.523438 203.554688 130.21875 C 204.039062 130.902344 204.574219 131.550781 205.132812 132.171875 C 206.105469 133.246094 207.203125 134.246094 208.367188 135.105469 C 209.871094 136.238281 211.429688 137.289062 213.078125 138.195312 C 213.542969 138.453125 214.03125 138.738281 214.527344 138.933594 C 215.683594 139.367188 216.9375 139.5 218.164062 139.394531 C 218.808594 139.332031 219.429688 139.09375 219.96875 138.734375 C 220.738281 139.550781 221.480469 140.378906 222.195312 141.207031 C 223 142.171875 223.824219 143.234375 224.460938 144.277344 C 225.109375 145.414062 225.75 146.636719 226.355469 147.800781 C 228.117188 151.203125 230.25 155.316406 231.96875 158.734375 C 234.53125 163.65625 237.777344 168.398438 242.300781 171.714844 Z M 214.347656 171.464844 C 214.359375 171.433594 214.347656 171.402344 214.324219 171.382812 C 214.296875 171.355469 214.25 171.363281 214.226562 171.394531 C 211.890625 174.289062 208.539062 175.980469 205.03125 176.871094 C 201.632812 177.714844 197.949219 177.8125 194.578125 176.890625 C 187.609375 174.917969 181.882812 169.515625 179.035156 162.882812 C 179.019531 162.855469 178.992188 162.839844 178.960938 162.839844 C 178.921875 162.847656 178.894531 162.878906 178.898438 162.917969 C 179 163.871094 179.199219 164.816406 179.476562 165.742188 C 181.175781 171.429688 185.613281 176.144531 191.019531 178.53125 C 197.394531 181.429688 205.363281 180.425781 210.820312 176.058594 C 212.320312 174.824219 213.625 173.269531 214.347656 171.464844 Z M 180.796875 184.917969 C 181.476562 184.101562 182.296875 183.109375 182.265625 181.773438 C 182.25 181.109375 182.03125 180.605469 181.921875 180.390625 C 181.816406 180.179688 181.191406 178.917969 179.859375 178.664062 C 178.773438 178.460938 177.609375 179 176.917969 180.023438 C 176.835938 179.859375 176.0625 178.375 174.609375 178.214844 C 173.929688 178.140625 173.359375 178.386719 173.070312 178.507812 C 172.753906 178.644531 172.039062 178.964844 171.542969 179.742188 C 171.136719 180.382812 171.085938 180.996094 171.070312 181.265625 C 170.984375 182.519531 171.601562 183.449219 171.832031 183.761719 C 172.320312 184.523438 172.988281 185.417969 173.878906 186.332031 C 174.742188 187.21875 175.589844 187.890625 176.316406 188.390625 C 176.894531 188.058594 177.707031 187.554688 178.621094 186.863281 C 179.507812 186.191406 180.132812 185.71875 180.796875 184.917969 Z M 158.289062 147.039062 C 159.066406 146.617188 159.550781 145.804688 159.488281 144.921875 C 159.339844 142.6875 156.957031 139.921875 153.488281 137.25 C 148.042969 133.058594 140.636719 131.691406 137.292969 131.519531 C 137.992188 134.597656 141.480469 139.488281 145.390625 142.84375 C 150.027344 146.820312 155.332031 148.65625 158.289062 147.039062 Z M 158.289062 147.039062 "/><path style=" stroke:none;fill-rule:nonzero;fill:#000000;fill-opacity:1;" d="M 240.746094 109.890625 C 240.871094 109.847656 240.992188 109.800781 241.117188 109.757812 C 240.90625 109.917969 240.691406 110.070312 240.472656 110.21875 C 240.5625 110.109375 240.652344 110 240.746094 109.890625 Z M 240.746094 109.890625 "/><path style=" stroke:none;fill-rule:nonzero;fill:#000000;fill-opacity:1;" d="M 240.746094 109.890625 C 240.652344 110 240.5625 110.109375 240.472656 110.21875 C 239.140625 111.121094 237.675781 111.824219 236.179688 112.417969 C 234.636719 113.015625 233.027344 113.476562 231.386719 113.769531 C 231.117188 113.46875 230.847656 113.167969 230.570312 112.871094 L 230.558594 112.859375 C 230.492188 112.785156 230.421875 112.710938 230.351562 112.636719 C 230.417969 112.625 230.480469 112.617188 230.542969 112.609375 C 234.015625 112.113281 237.46875 111.039062 240.746094 109.890625 Z M 240.746094 109.890625 "/><path style=" stroke:none;fill-rule:nonzero;fill:#000000;fill-opacity:1;" d="M 240.472656 110.21875 C 239.523438 111.363281 238.519531 112.585938 237.660156 113.660156 C 236.597656 114.980469 235.539062 116.324219 234.492188 117.6875 C 234.421875 117.773438 234.355469 117.859375 234.289062 117.949219 C 232.671875 120.046875 231.070312 122.183594 229.476562 124.316406 C 228.601562 124.441406 227.703125 124.476562 226.828125 124.535156 C 224.945312 124.644531 222.925781 124.683594 221.035156 124.695312 C 218.859375 124.691406 216.632812 124.707031 214.488281 124.429688 C 211.347656 124.011719 208.234375 123.246094 205.296875 122.050781 C 205.441406 121.941406 205.585938 121.832031 205.734375 121.734375 C 209.945312 118.890625 215.082031 115.3125 219.664062 112.066406 C 219.675781 112.082031 219.691406 112.09375 219.710938 112.105469 C 220.554688 112.5 221.425781 112.835938 222.308594 113.140625 C 223.667969 113.59375 225.039062 113.992188 226.480469 114.082031 C 228.105469 114.167969 229.738281 114.054688 231.34375 113.777344 C 231.359375 113.773438 231.375 113.769531 231.386719 113.769531 C 233.027344 113.476562 234.640625 113.015625 236.179688 112.417969 C 237.675781 111.824219 239.140625 111.121094 240.472656 110.21875 Z M 240.472656 110.21875 "/><path style=" stroke:none;fill-rule:nonzero;fill:#000000;fill-opacity:1;" d="M 235.617188 119.324219 C 235.515625 119.46875 235.414062 119.613281 235.3125 119.757812 C 235.214844 119.570312 235.109375 119.378906 235.007812 119.195312 C 234.941406 119.074219 234.875 118.953125 234.804688 118.835938 C 234.890625 118.722656 234.972656 118.605469 235.054688 118.492188 C 235.242188 118.769531 235.433594 119.046875 235.617188 119.324219 Z M 235.617188 119.324219 "/><path style=" stroke:none;fill-rule:nonzero;fill:#000000;fill-opacity:1;" d="M 235.5 100.179688 C 235.394531 100.261719 235.292969 100.34375 235.1875 100.429688 C 235.144531 100.40625 235.105469 100.382812 235.066406 100.363281 C 234.945312 100.292969 235.007812 100.097656 235.148438 100.121094 Z M 235.5 100.179688 "/><path style=" stroke:none;fill-rule:nonzero;fill:#161616;fill-opacity:1;" d="M 235.007812 119.195312 C 235.109375 119.378906 235.214844 119.570312 235.3125 119.757812 C 233.140625 122.859375 230.941406 125.902344 228.816406 128.628906 C 226.785156 131.25 224.71875 133.847656 222.464844 136.285156 C 222.277344 136.085938 222.085938 135.882812 221.894531 135.683594 C 224.480469 132.695312 227.699219 128.460938 230.976562 124.035156 C 232.253906 122.308594 233.542969 120.554688 234.804688 118.835938 C 234.875 118.953125 234.941406 119.074219 235.007812 119.195312 Z M 235.007812 119.195312 "/><path style=" stroke:none;fill-rule:nonzero;fill:#000000;fill-opacity:1;" d="M 235.054688 118.492188 C 234.972656 118.605469 234.890625 118.722656 234.804688 118.835938 C 234.636719 118.535156 234.464844 118.242188 234.289062 117.949219 C 234.355469 117.859375 234.421875 117.773438 234.492188 117.6875 C 234.679688 117.953125 234.871094 118.222656 235.054688 118.492188 Z M 235.054688 118.492188 "/><path style=" stroke:none;fill-rule:nonzero;fill:#000000;fill-opacity:1;" d="M 234.289062 117.949219 C 234.464844 118.242188 234.636719 118.535156 234.804688 118.835938 C 233.542969 120.554688 232.253906 122.308594 230.976562 124.035156 L 230.929688 124 C 230.457031 124.148438 229.972656 124.246094 229.476562 124.316406 C 231.070312 122.183594 232.671875 120.050781 234.289062 117.949219 Z M 234.289062 117.949219 "/><path style=" stroke:none;fill-rule:nonzero;fill:#161616;fill-opacity:1;" d="M 232.558594 153.917969 C 233.457031 156.078125 234.339844 158.238281 235.355469 160.328125 C 232.539062 157.089844 230.414062 153.316406 228.546875 149.476562 L 229.761719 148.789062 C 230.332031 149.671875 230.890625 150.535156 231.460938 151.378906 C 231.460938 151.378906 231.464844 151.378906 231.464844 151.382812 C 231.828125 152.226562 232.191406 153.070312 232.558594 153.917969 Z M 232.558594 153.917969 "/><path style=" stroke:none;fill-rule:nonzero;fill:#000000;fill-opacity:1;" d="M 231.386719 113.769531 C 231.375 113.769531 231.359375 113.773438 231.34375 113.777344 C 231.09375 113.46875 230.835938 113.167969 230.570312 112.871094 C 230.847656 113.167969 231.117188 113.464844 231.386719 113.769531 Z M 231.386719 113.769531 "/><path style=" stroke:none;fill-rule:nonzero;fill:#161616;fill-opacity:1;" d="M 230.929688 124 L 230.976562 124.035156 C 227.699219 128.460938 224.480469 132.691406 221.894531 135.683594 C 221.699219 135.480469 221.503906 135.28125 221.308594 135.082031 C 222.1875 134.011719 223.40625 132.417969 224.238281 131.328125 C 225.890625 129.136719 227.546875 126.902344 229.21875 124.664062 C 229.265625 124.652344 229.3125 124.640625 229.359375 124.625 C 229.890625 124.464844 230.488281 124.332031 230.929688 124 Z M 230.929688 124 "/><path style=" stroke:none;fill-rule:nonzero;fill:#000000;fill-opacity:1;" d="M 230.570312 112.871094 C 230.835938 113.167969 231.09375 113.46875 231.34375 113.773438 C 229.738281 114.054688 228.105469 114.167969 226.480469 114.082031 C 225.039062 113.992188 223.667969 113.59375 222.308594 113.140625 C 221.425781 112.835938 220.554688 112.5 219.710938 112.101562 C 219.691406 112.09375 219.675781 112.078125 219.664062 112.0625 C 219.746094 112.003906 219.832031 111.945312 219.914062 111.886719 C 221.667969 112.269531 223.414062 112.671875 225.191406 112.882812 C 226.921875 113.066406 228.632812 112.859375 230.347656 112.632812 C 230.417969 112.710938 230.488281 112.785156 230.558594 112.859375 Z M 230.570312 112.871094 "/><path style=" stroke:none;fill-rule:nonzero;fill:#000000;fill-opacity:1;" d="M 230.351562 112.636719 C 230.421875 112.710938 230.492188 112.785156 230.558594 112.859375 C 230.488281 112.785156 230.417969 112.710938 230.347656 112.636719 Z M 230.351562 112.636719 "/><path style=" stroke:none;fill-rule:nonzero;fill:#000000;fill-opacity:1;" d="M 230.929688 124 C 230.488281 124.332031 229.890625 124.464844 229.359375 124.625 C 229.3125 124.640625 229.265625 124.652344 229.21875 124.664062 C 229.304688 124.546875 229.390625 124.433594 229.476562 124.316406 C 229.972656 124.246094 230.460938 124.148438 230.929688 124 Z M 230.929688 124 "/><path style=" stroke:none;fill-rule:nonzero;fill:#000000;fill-opacity:1;" d="M 229.476562 124.316406 C 229.390625 124.433594 229.304688 124.546875 229.21875 124.664062 C 228.453125 124.867188 227.675781 125.007812 226.894531 125.144531 C 223.027344 125.730469 219.09375 126.03125 215.175781 125.789062 C 212.640625 125.554688 210.128906 124.914062 207.808594 123.867188 C 206.835938 123.417969 205.878906 122.914062 205.023438 122.261719 C 205.113281 122.1875 205.203125 122.117188 205.296875 122.050781 C 208.234375 123.246094 211.347656 124.011719 214.488281 124.429688 C 216.632812 124.707031 218.859375 124.691406 221.035156 124.695312 C 222.925781 124.683594 224.945312 124.644531 226.828125 124.535156 C 227.703125 124.476562 228.601562 124.441406 229.476562 124.316406 Z M 229.476562 124.316406 "/><path style=" stroke:none;fill-rule:nonzero;fill:#000000;fill-opacity:1;" d="M 226.894531 125.144531 C 227.675781 125.007812 228.453125 124.867188 229.21875 124.664062 C 227.550781 126.902344 225.890625 129.136719 224.238281 131.328125 C 223.40625 132.417969 222.1875 134.011719 221.308594 135.082031 C 221.277344 135.117188 221.25 135.152344 221.222656 135.1875 C 220.707031 135.816406 220.1875 136.4375 219.644531 137.03125 C 219.445312 137.261719 219.207031 137.507812 218.945312 137.664062 C 218.925781 137.675781 218.90625 137.6875 218.890625 137.699219 C 218.292969 138.070312 217.554688 138.105469 216.867188 138.109375 C 216.210938 138.101562 215.550781 138.011719 214.925781 137.8125 C 214.457031 137.652344 214.046875 137.425781 213.597656 137.210938 C 211.800781 136.292969 210.019531 135.28125 208.472656 133.980469 C 206.699219 132.386719 203.351562 130.21875 202.753906 127.875 C 202.515625 126.992188 202.46875 126.101562 202.679688 125.28125 C 202.847656 124.621094 203.179688 124.011719 203.710938 123.480469 C 203.949219 123.222656 204.203125 122.972656 204.464844 122.738281 C 204.648438 122.570312 204.832031 122.414062 205.023438 122.261719 C 205.878906 122.914062 206.835938 123.414062 207.808594 123.867188 C 210.128906 124.914062 212.640625 125.554688 215.175781 125.789062 C 219.09375 126.03125 223.027344 125.730469 226.894531 125.144531 Z M 226.894531 125.144531 "/><path style=" stroke:none;fill-rule:nonzero;fill:#000000;fill-opacity:1;" d="M 225.339844 108 C 225.324219 108.011719 225.304688 108.023438 225.285156 108.035156 C 224.902344 107.738281 224.511719 107.441406 224.117188 107.15625 C 224.144531 107.136719 224.171875 107.113281 224.199219 107.09375 C 224.582031 107.386719 224.964844 107.691406 225.339844 107.996094 Z M 225.339844 108 "/><path style=" stroke:none;fill-rule:nonzero;fill:#161616;fill-opacity:1;" d="M 224.117188 107.15625 C 224.511719 107.441406 224.902344 107.738281 225.285156 108.035156 C 224.769531 108.417969 224.246094 108.796875 223.726562 109.171875 C 222.527344 110.03125 221.246094 110.945312 219.914062 111.890625 C 219.875 111.878906 219.832031 111.871094 219.792969 111.863281 C 219.664062 111.835938 219.601562 111.980469 219.664062 112.066406 C 215.082031 115.3125 209.945312 118.890625 205.734375 121.734375 C 205.585938 121.835938 205.4375 121.941406 205.296875 122.050781 C 205.203125 122.015625 205.113281 121.976562 205.019531 121.9375 C 204.976562 121.917969 204.925781 121.925781 204.886719 121.953125 L 204.832031 121.894531 C 205.128906 121.636719 205.375 121.441406 205.511719 121.347656 C 207.539062 119.957031 215.3125 113.972656 224.117188 107.15625 Z M 224.117188 107.15625 "/><path style=" stroke:none;fill-rule:nonzero;fill:#000000;fill-opacity:1;" d="M 224.199219 107.09375 C 224.171875 107.113281 224.144531 107.136719 224.117188 107.15625 C 223.726562 106.871094 223.332031 106.59375 222.933594 106.324219 L 223.050781 106.226562 C 223.4375 106.507812 223.820312 106.800781 224.199219 107.09375 Z M 224.199219 107.09375 "/><path style=" stroke:none;fill-rule:nonzero;fill:#161616;fill-opacity:1;" d="M 222.933594 106.324219 C 223.332031 106.59375 223.726562 106.871094 224.117188 107.15625 C 215.3125 113.972656 207.539062 119.957031 205.511719 121.347656 C 205.375 121.441406 205.128906 121.636719 204.832031 121.894531 C 204.613281 122.085938 204.367188 122.316406 204.125 122.5625 C 204.011719 122.507812 203.898438 122.453125 203.789062 122.398438 C 204.296875 121.816406 204.851562 121.285156 205.46875 120.820312 C 211.132812 116.390625 216.511719 111.585938 222.074219 107.027344 C 222.359375 106.792969 222.648438 106.558594 222.933594 106.324219 Z M 222.933594 106.324219 "/><path style=" stroke:none;fill-rule:nonzero;fill:#161616;fill-opacity:1;" d="M 223.050781 106.226562 L 222.933594 106.324219 C 212.308594 99.058594 198.953125 96.132812 186.183594 96.195312 C 181.988281 96.261719 177.738281 96.667969 173.613281 97.445312 C 172.734375 97.605469 171.703125 97.855469 170.835938 98.039062 C 170.007812 98.25 168.90625 98.515625 168.082031 98.746094 C 160.660156 100.855469 153.335938 104.207031 147.945312 109.867188 L 147.835938 109.976562 L 147.734375 110.09375 L 147.328125 110.554688 L 147.226562 110.667969 L 147.132812 110.789062 C 145.03125 113.429688 143.671875 116.617188 142.886719 119.890625 C 142.710938 120.636719 142.566406 121.390625 142.488281 122.160156 C 142.472656 122.15625 142.453125 122.15625 142.4375 122.15625 C 142.394531 121.382812 142.421875 120.601562 142.492188 119.828125 C 142.78125 116.757812 143.664062 113.710938 145.167969 111.015625 C 145.402344 110.570312 145.695312 110.148438 145.96875 109.71875 C 146.152344 109.46875 146.386719 109.148438 146.574219 108.894531 C 150.199219 104.3125 155.171875 100.925781 160.457031 98.535156 C 163.472656 97.175781 166.628906 96.109375 169.832031 95.285156 C 170.042969 95.230469 170.265625 95.164062 170.472656 95.125 L 171.761719 94.835938 C 172.15625 94.746094 172.671875 94.628906 173.058594 94.558594 C 182.550781 92.65625 192.484375 93.195312 201.757812 95.941406 C 209.332031 98.140625 216.675781 101.542969 223.050781 106.226562 Z M 223.050781 106.226562 "/><path style=" stroke:none;fill-rule:nonzero;fill:#000000;fill-opacity:1;" d="M 222.933594 106.324219 C 222.644531 106.558594 222.359375 106.792969 222.074219 107.027344 C 216.511719 111.585938 211.132812 116.390625 205.46875 120.820312 C 204.851562 121.285156 204.292969 121.816406 203.789062 122.398438 C 187.636719 114.476562 172.398438 117.667969 158.890625 129.648438 L 158.976562 129.757812 L 158.929688 129.792969 C 156.636719 127.085938 153.65625 124.867188 150.386719 123.765625 C 147.824219 122.890625 145.164062 122.425781 142.488281 122.160156 C 142.566406 121.390625 142.710938 120.636719 142.886719 119.890625 C 143.671875 116.617188 145.03125 113.429688 147.132812 110.789062 L 147.226562 110.667969 L 147.328125 110.554688 L 147.734375 110.09375 L 147.835938 109.976562 L 147.945312 109.867188 C 153.335938 104.207031 160.660156 100.855469 168.082031 98.746094 C 168.90625 98.515625 170.003906 98.25 170.835938 98.039062 C 171.703125 97.855469 172.734375 97.605469 173.613281 97.445312 C 177.738281 96.667969 181.988281 96.261719 186.183594 96.195312 C 198.953125 96.132812 212.304688 99.058594 222.933594 106.324219 Z M 222.933594 106.324219 "/><path style=" stroke:none;fill-rule:nonzero;fill:#161616;fill-opacity:1;" d="M 221.894531 135.683594 C 222.085938 135.882812 222.277344 136.085938 222.464844 136.285156 C 221.902344 136.894531 221.324219 137.496094 220.734375 138.085938 C 220.507812 138.332031 220.25 138.550781 219.96875 138.734375 C 219.800781 138.554688 219.632812 138.375 219.460938 138.199219 C 219.65625 138.070312 219.835938 137.921875 220.003906 137.75 C 220.585938 137.160156 221.214844 136.460938 221.894531 135.683594 Z M 221.894531 135.683594 "/><path style=" stroke:none;fill-rule:nonzero;fill:#161616;fill-opacity:1;" d="M 221.308594 135.082031 C 221.503906 135.28125 221.699219 135.480469 221.894531 135.683594 C 221.21875 136.464844 220.585938 137.160156 220.003906 137.753906 C 219.835938 137.921875 219.65625 138.070312 219.460938 138.199219 C 219.292969 138.019531 219.117188 137.839844 218.945312 137.664062 C 219.207031 137.503906 219.445312 137.261719 219.644531 137.03125 C 220.1875 136.4375 220.707031 135.816406 221.222656 135.183594 C 221.25 135.152344 221.28125 135.117188 221.308594 135.082031 Z M 221.308594 135.082031 "/><path style=" stroke:none;fill-rule:nonzero;fill:#000000;fill-opacity:1;" d="M 219.914062 111.890625 C 219.832031 111.949219 219.746094 112.007812 219.664062 112.066406 C 219.601562 111.980469 219.664062 111.835938 219.792969 111.863281 C 219.832031 111.871094 219.875 111.878906 219.914062 111.890625 Z M 219.914062 111.890625 "/><path style=" stroke:none;fill-rule:nonzero;fill:#161616;fill-opacity:1;" d="M 219.460938 138.199219 C 219.632812 138.378906 219.800781 138.554688 219.96875 138.734375 C 219.429688 139.09375 218.808594 139.332031 218.164062 139.394531 C 216.9375 139.5 215.683594 139.367188 214.523438 138.933594 C 214.03125 138.738281 213.542969 138.453125 213.078125 138.195312 C 211.429688 137.289062 209.871094 136.238281 208.367188 135.105469 C 207.203125 134.246094 206.105469 133.246094 205.132812 132.171875 C 204.574219 131.550781 204.039062 130.902344 203.554688 130.21875 C 203.070312 129.527344 202.601562 128.796875 202.402344 127.957031 C 202.132812 126.988281 202.0625 126 202.265625 125.066406 C 202.335938 125.097656 202.402344 125.132812 202.46875 125.167969 C 202.179688 126.382812 202.472656 127.46875 202.578125 127.917969 C 202.726562 128.554688 203.246094 130.351562 208.164062 134.347656 C 211.070312 136.707031 214.445312 138.261719 214.445312 138.261719 C 214.445312 138.261719 215.839844 138.929688 217.945312 138.730469 C 218.488281 138.675781 219.007812 138.496094 219.460938 138.199219 Z M 219.460938 138.199219 "/><path style=" stroke:none;fill-rule:nonzero;fill:#161616;fill-opacity:1;" d="M 218.945312 137.664062 C 219.117188 137.84375 219.292969 138.019531 219.460938 138.199219 C 219.007812 138.496094 218.488281 138.679688 217.945312 138.730469 C 215.839844 138.933594 214.445312 138.261719 214.445312 138.261719 C 214.445312 138.261719 211.070312 136.707031 208.164062 134.347656 C 203.246094 130.355469 202.730469 128.554688 202.578125 127.917969 C 202.472656 127.472656 202.179688 126.382812 202.46875 125.167969 C 202.539062 125.207031 202.609375 125.242188 202.679688 125.28125 C 202.46875 126.101562 202.515625 126.992188 202.753906 127.875 C 203.351562 130.21875 206.699219 132.386719 208.472656 133.980469 C 210.019531 135.28125 211.800781 136.292969 213.597656 137.210938 C 214.046875 137.425781 214.457031 137.652344 214.925781 137.8125 C 215.550781 138.011719 216.210938 138.101562 216.867188 138.109375 C 217.554688 138.105469 218.292969 138.070312 218.890625 137.699219 C 218.90625 137.6875 218.925781 137.675781 218.945312 137.664062 Z M 218.945312 137.664062 "/><path style=" stroke:none;fill-rule:nonzero;fill:#161616;fill-opacity:1;" d="M 214.324219 171.382812 C 214.347656 171.402344 214.359375 171.433594 214.347656 171.464844 C 213.625 173.269531 212.320312 174.824219 210.820312 176.058594 C 205.363281 180.425781 197.394531 181.425781 191.019531 178.53125 C 185.613281 176.144531 181.175781 171.429688 179.476562 165.742188 C 179.199219 164.816406 179 163.871094 178.898438 162.917969 C 178.894531 162.878906 178.921875 162.84375 178.960938 162.839844 C 178.992188 162.839844 179.019531 162.855469 179.035156 162.882812 C 181.882812 169.515625 187.609375 174.917969 194.578125 176.890625 C 197.949219 177.8125 201.632812 177.714844 205.03125 176.871094 C 208.539062 175.980469 211.890625 174.289062 214.226562 171.394531 C 214.25 171.363281 214.296875 171.355469 214.324219 171.382812 Z M 214.324219 171.382812 "/><path style=" stroke:none;fill-rule:nonzero;fill:#000000;fill-opacity:1;" d="M 210.464844 243.738281 C 210.820312 244.171875 211.1875 244.597656 211.5625 245.023438 C 210.730469 244.617188 209.929688 244.117188 209.171875 243.570312 C 209.601562 243.632812 210.03125 243.6875 210.464844 243.738281 Z M 210.464844 243.738281 "/><path style=" stroke:none;fill-rule:nonzero;fill:#161616;fill-opacity:1;" d="M 210.464844 243.738281 C 210.03125 243.6875 209.601562 243.632812 209.171875 243.570312 C 208.898438 243.375 208.632812 243.171875 208.367188 242.964844 C 202.972656 238.707031 199.683594 231.972656 199.695312 225.054688 C 199.71875 219.949219 201.523438 214.730469 204.964844 210.945312 C 205.226562 210.90625 205.492188 210.871094 205.761719 210.839844 C 203.964844 215.257812 202.789062 219.957031 202.894531 224.722656 C 202.878906 225.046875 202.925781 225.550781 202.941406 225.878906 C 202.96875 226.632812 203.050781 227.445312 203.15625 228.1875 C 203.800781 232.875 205.785156 237.300781 208.492188 241.15625 C 209.105469 242.035156 209.765625 242.894531 210.464844 243.738281 Z M 210.464844 243.738281 "/><path style=" stroke:none;fill-rule:nonzero;fill:#000000;fill-opacity:1;" d="M 206.257812 209.660156 C 206.089844 210.050781 205.921875 210.445312 205.761719 210.84375 C 205.496094 210.871094 205.230469 210.90625 204.964844 210.945312 C 205.375 210.496094 205.804688 210.066406 206.257812 209.660156 Z M 206.257812 209.660156 "/><path style=" stroke:none;fill-rule:nonzero;fill:#000000;fill-opacity:1;" d="M 205.019531 121.9375 C 205.113281 121.976562 205.203125 122.015625 205.296875 122.050781 C 205.203125 122.117188 205.113281 122.1875 205.023438 122.261719 C 204.976562 122.226562 204.933594 122.191406 204.886719 122.15625 C 204.828125 122.109375 204.820312 122.027344 204.867188 121.976562 C 204.871094 121.964844 204.878906 121.960938 204.886719 121.953125 C 204.925781 121.925781 204.976562 121.917969 205.019531 121.9375 Z M 205.019531 121.9375 "/><path style=" stroke:none;fill-rule:nonzero;fill:#161616;fill-opacity:1;" d="M 204.886719 122.15625 C 204.929688 122.191406 204.976562 122.226562 205.023438 122.261719 C 204.832031 122.414062 204.644531 122.570312 204.464844 122.738281 C 204.351562 122.679688 204.238281 122.621094 204.121094 122.5625 C 204.367188 122.316406 204.613281 122.085938 204.832031 121.894531 L 204.886719 121.953125 C 204.878906 121.960938 204.871094 121.964844 204.867188 121.976562 C 204.820312 122.03125 204.828125 122.109375 204.886719 122.15625 Z M 204.886719 122.15625 "/><path style=" stroke:none;fill-rule:nonzero;fill:#161616;fill-opacity:1;" d="M 204.121094 122.5625 C 204.238281 122.621094 204.351562 122.679688 204.464844 122.738281 C 204.199219 122.972656 203.949219 123.222656 203.710938 123.480469 C 203.179688 124.011719 202.847656 124.621094 202.679688 125.28125 C 202.609375 125.242188 202.539062 125.207031 202.46875 125.167969 C 202.527344 124.925781 202.605469 124.675781 202.71875 124.425781 C 202.992188 123.808594 203.558594 123.128906 204.121094 122.5625 Z M 204.121094 122.5625 "/><path style=" stroke:none;fill-rule:nonzero;fill:#161616;fill-opacity:1;" d="M 203.789062 122.398438 C 203.898438 122.453125 204.011719 122.507812 204.121094 122.5625 C 203.558594 123.128906 202.992188 123.804688 202.71875 124.425781 C 202.605469 124.675781 202.527344 124.925781 202.46875 125.167969 C 202.402344 125.132812 202.335938 125.097656 202.265625 125.066406 C 202.421875 124.359375 202.730469 123.6875 203.226562 123.078125 C 203.40625 122.847656 203.59375 122.621094 203.789062 122.398438 Z M 203.789062 122.398438 "/><path style=" stroke:none;fill-rule:nonzero;fill:#161616;fill-opacity:1;" d="M 203.789062 122.398438 C 203.59375 122.621094 203.40625 122.84375 203.226562 123.078125 C 202.730469 123.6875 202.421875 124.359375 202.269531 125.066406 C 196.847656 122.28125 191.035156 120.511719 185.09375 120.398438 C 178.398438 120.292969 171.792969 122.296875 165.914062 125.453125 C 163.519531 126.722656 161.222656 128.195312 158.976562 129.757812 L 158.890625 129.648438 C 172.398438 117.667969 187.640625 114.476562 203.789062 122.398438 Z M 203.789062 122.398438 "/><path style=" stroke:none;fill-rule:nonzero;fill:#161616;fill-opacity:1;" d="M 182.265625 181.773438 C 182.296875 183.109375 181.476562 184.101562 180.796875 184.917969 C 180.132812 185.71875 179.507812 186.191406 178.621094 186.863281 C 177.707031 187.554688 176.894531 188.058594 176.316406 188.390625 C 175.589844 187.890625 174.742188 187.21875 173.878906 186.335938 C 172.988281 185.421875 172.320312 184.523438 171.832031 183.765625 C 171.601562 183.449219 170.984375 182.519531 171.070312 181.265625 C 171.089844 180.996094 171.136719 180.382812 171.542969 179.742188 C 172.039062 178.964844 172.753906 178.644531 173.070312 178.507812 C 173.359375 178.386719 173.933594 178.140625 174.609375 178.214844 C 176.0625 178.375 176.835938 179.859375 176.917969 180.023438 C 177.609375 179 178.773438 178.460938 179.859375 178.664062 C 181.191406 178.917969 181.816406 180.179688 181.921875 180.390625 C 182.03125 180.605469 182.25 181.109375 182.265625 181.773438 Z M 182.265625 181.773438 "/><path style=" stroke:none;fill-rule:nonzero;fill:#161616;fill-opacity:1;" d="M 163.464844 138.761719 C 163.472656 138.800781 163.449219 138.839844 163.414062 138.847656 C 163.378906 138.855469 163.351562 138.839844 163.335938 138.8125 C 160.75 134.15625 157.546875 130.320312 152.988281 127.503906 C 150.144531 125.773438 146.683594 125.015625 143.394531 124.378906 C 138.507812 123.519531 133.476562 123.09375 128.507812 123.390625 C 128.464844 123.136719 128.425781 122.878906 128.386719 122.625 L 127.734375 123.445312 C 127.992188 123.425781 128.25 123.40625 128.507812 123.390625 C 128.789062 125.019531 129.207031 126.648438 129.691406 128.226562 C 131.300781 133.289062 133.921875 139.144531 137.585938 142.988281 C 138.226562 143.625 138.96875 144.335938 139.640625 144.953125 C 141.636719 146.804688 143.789062 148.574219 146.179688 149.84375 L 145.265625 151.097656 C 145.113281 151.304688 144.964844 151.511719 144.816406 151.71875 C 141.773438 150.417969 139.042969 148.316406 136.605469 146.136719 C 136.570312 146.105469 136.53125 146.070312 136.496094 146.039062 C 136.53125 146 136.5625 145.960938 136.59375 145.917969 C 136.554688 145.953125 136.515625 145.988281 136.476562 146.023438 C 133.378906 143.355469 131.449219 139.832031 130.085938 136.066406 C 130.113281 136.039062 130.144531 136.019531 130.171875 135.992188 C 130.140625 136.011719 130.109375 136.027344 130.078125 136.046875 C 129.207031 133.632812 128.566406 131.125 128.003906 128.671875 C 127.582031 126.726562 127.183594 124.785156 126.933594 122.804688 L 126.84375 122.050781 L 127.585938 121.984375 C 131.183594 121.742188 134.738281 121.761719 138.335938 121.882812 C 139.703125 121.9375 141.074219 122.019531 142.4375 122.15625 C 142.445312 122.25 142.453125 122.34375 142.460938 122.433594 C 142.46875 122.34375 142.476562 122.253906 142.488281 122.160156 C 145.164062 122.425781 147.824219 122.890625 150.386719 123.765625 C 153.660156 124.867188 156.636719 127.085938 158.933594 129.792969 C 159.964844 131.011719 160.859375 132.332031 161.578125 133.691406 C 162.429688 135.308594 163.054688 137.019531 163.464844 138.761719 Z M 163.464844 138.761719 "/><path style=" stroke:none;fill-rule:nonzero;fill:#161616;fill-opacity:1;" d="M 159.488281 144.921875 C 159.550781 145.804688 159.066406 146.617188 158.289062 147.039062 C 155.332031 148.65625 150.023438 146.820312 145.390625 142.84375 C 141.480469 139.488281 137.992188 134.597656 137.292969 131.519531 C 140.636719 131.691406 148.042969 133.058594 153.488281 137.25 C 156.957031 139.921875 159.339844 142.6875 159.488281 144.921875 Z M 159.488281 144.921875 "/><path style=" stroke:none;fill-rule:nonzero;fill:#000000;fill-opacity:1;" d="M 157.457031 151.925781 C 157.457031 151.960938 157.4375 151.988281 157.40625 151.996094 C 156.726562 152.214844 156.035156 152.40625 155.335938 152.5625 C 155.300781 152.464844 155.265625 152.371094 155.234375 152.277344 C 155.261719 152.375 155.285156 152.472656 155.316406 152.566406 C 153.574219 152.957031 151.78125 153.132812 149.996094 153.007812 C 149.34375 152.960938 148.703125 152.875 148.070312 152.746094 L 148.761719 152.105469 L 146.253906 149.878906 C 147.917969 150.753906 149.695312 151.386719 151.613281 151.636719 C 153.507812 151.925781 155.453125 151.917969 157.382812 151.859375 C 157.421875 151.859375 157.457031 151.886719 157.457031 151.925781 Z M 157.457031 151.925781 "/><path style=" stroke:none;fill-rule:nonzero;fill:#000000;fill-opacity:1;" d="M 155.335938 152.5625 C 155.328125 152.566406 155.320312 152.566406 155.316406 152.566406 C 155.285156 152.472656 155.261719 152.375 155.234375 152.277344 C 155.265625 152.371094 155.300781 152.464844 155.335938 152.5625 Z M 155.335938 152.5625 "/><path style=" stroke:none;fill-rule:nonzero;fill:#000000;fill-opacity:1;" d="M 148.761719 152.109375 L 148.070312 152.746094 C 146.949219 152.515625 145.863281 152.164062 144.816406 151.71875 C 144.964844 151.511719 145.113281 151.304688 145.265625 151.097656 L 146.179688 149.84375 C 146.203125 149.855469 146.226562 149.867188 146.253906 149.878906 Z M 148.761719 152.109375 "/><path style=" stroke:none;fill-rule:nonzero;fill:#000000;fill-opacity:1;" d="M 148.070312 152.746094 L 147.605469 153.175781 C 141.960938 158.433594 137.871094 165.246094 135.191406 172.453125 C 133.382812 177.339844 132.179688 182.414062 131.484375 187.5625 C 131.914062 184.1875 132.503906 180.832031 133.269531 177.515625 C 135.429688 168.277344 139.253906 159.433594 144.816406 151.71875 C 145.863281 152.164062 146.949219 152.515625 148.070312 152.746094 Z M 148.070312 152.746094 "/><path style=" stroke:none;fill-rule:nonzero;fill:#000000;fill-opacity:1;" d="M 146.253906 149.878906 C 146.226562 149.867188 146.203125 149.855469 146.179688 149.839844 L 146.191406 149.824219 Z M 146.253906 149.878906 "/><path style=" stroke:none;fill-rule:nonzero;fill:#000000;fill-opacity:1;" d="M 142.488281 122.160156 C 142.476562 122.25 142.464844 122.34375 142.457031 122.433594 C 142.449219 122.34375 142.445312 122.25 142.4375 122.15625 C 142.453125 122.15625 142.472656 122.15625 142.488281 122.160156 Z M 142.488281 122.160156 "/><path style=" stroke:none;fill-rule:nonzero;fill:#000000;fill-opacity:1;" d="M 136.59375 145.917969 C 136.5625 145.957031 136.53125 146 136.496094 146.039062 C 136.488281 146.035156 136.484375 146.03125 136.476562 146.023438 C 136.515625 145.988281 136.554688 145.953125 136.59375 145.917969 Z M 136.59375 145.917969 "/><path style=" stroke:none;fill-rule:nonzero;fill:#000000;fill-opacity:1;" d="M 136.476562 146.023438 C 134.109375 148.175781 131.714844 150.304688 129.507812 152.636719 C 121.488281 160.9375 115.578125 171.3125 112.628906 182.496094 C 106.847656 204.285156 111.125 230.074219 122.179688 249.5625 C 122.519531 250.164062 122.863281 250.757812 123.214844 251.347656 C 112.53125 239.414062 103.742188 225.273438 100.398438 209.492188 C 96.871094 193.195312 101.21875 176.246094 109.230469 161.925781 C 113.324219 154.636719 118.351562 147.882812 124.070312 141.789062 C 125.980469 139.785156 127.929688 137.804688 130.085938 136.066406 C 131.449219 139.832031 133.378906 143.355469 136.476562 146.023438 Z M 136.476562 146.023438 "/><path style=" stroke:none;fill-rule:nonzero;fill:#000000;fill-opacity:1;" d="M 131.484375 187.5625 C 131.273438 189.191406 131.101562 190.828125 130.96875 192.46875 C 131.089844 190.828125 131.261719 189.191406 131.484375 187.5625 Z M 131.484375 187.5625 "/><path style=" stroke:none;fill-rule:nonzero;fill:#000000;fill-opacity:1;" d="M 130.171875 135.992188 C 130.144531 136.019531 130.113281 136.039062 130.085938 136.066406 C 130.082031 136.058594 130.078125 136.050781 130.078125 136.046875 C 130.109375 136.027344 130.140625 136.011719 130.171875 135.992188 Z M 130.171875 135.992188 "/><g clip-rule="nonzero" clip-path="url(#f7c7e7be6e)"><path style=" stroke:none;fill-rule:nonzero;fill:#161616;fill-opacity:1;" d="M 130.078125 136.046875 C 130.078125 136.050781 130.082031 136.058594 130.085938 136.066406 C 127.929688 137.804688 125.980469 139.785156 124.070312 141.789062 C 118.351562 147.882812 113.324219 154.636719 109.234375 161.925781 C 101.21875 176.246094 96.871094 193.199219 100.398438 209.492188 C 103.742188 225.277344 112.535156 239.417969 123.214844 251.347656 C 123.335938 251.554688 123.464844 251.765625 123.589844 251.972656 C 111.070312 241.097656 101.058594 226.449219 97.242188 210.183594 C 92.480469 190.34375 99.515625 169.265625 111.742188 153.488281 C 116.523438 147.332031 122.042969 141.679688 128.390625 137.140625 C 128.941406 136.753906 129.5 136.378906 130.082031 136.046875 Z M 130.078125 136.046875 "/></g><path style=" stroke:none;fill-rule:nonzero;fill:#000000;fill-opacity:1;" d="M 128.386719 122.625 C 128.425781 122.878906 128.464844 123.136719 128.507812 123.390625 C 128.25 123.40625 127.992188 123.425781 127.734375 123.445312 Z M 128.386719 122.625 "/><path style=" stroke:none;fill-rule:nonzero;fill:#000000;fill-opacity:1;" d="M 124.449219 252.710938 C 124.160156 252.464844 123.875 252.21875 123.589844 251.972656 C 123.460938 251.765625 123.335938 251.554688 123.214844 251.347656 C 123.625 251.804688 124.035156 252.257812 124.449219 252.710938 Z M 124.449219 252.710938 "/></g></svg>