<?xml version="1.0" encoding="UTF-8"?><svg id="Layer_2" xmlns="http://www.w3.org/2000/svg" viewBox="0 0 3911.24 4402.28"><defs><style>.cls-1{fill:#f8c73e;}.cls-2{fill:#d8619e;}.cls-3{fill:#fff;}.cls-4{fill:#f1d2e2;}.cls-5{fill:#46c1d8;}.cls-6{fill:#f2d3e3;}</style></defs><g id="Layer_1-2"><path d="M3855.73,1873.93l54.76-2.56c-2.11,10.79-9.75,48.72-12.07,58.62-15.67,64.27-38.68,126.55-69.47,185.17-24.41,46.64-55.59,90.49-92.66,128.21-100.83,109.04-234.07,189.75-380.78,214.48.45-.68.86-1.4,1.25-2.08,157.85-42.72,284.79-145.43,376.67-279.32,43.02-66.5,69.71-142.93,85.23-220.7,16.53-1.81,32.97-4.28,49.17-7.43l4.88-1.1-45.69-42.24c-.18,2.79-1.07,8.23-1.37,11.09-2.02,13.26-4.34,26.49-6.99,39.69-98.52,10.7-201.37-2.68-292.66-39.57-49.14-18.43-89.54-55-119.86-96.41l-4.88-6.57c-1.52-2.26-3.33-4.25-4.58-6.69-.74-2.05-1.16-4.01-1.25-5.98h.03c1.1-.15,2.23-.33,3.33-.51,11.83-2.05,23.43-4.67,34.84-7.76h.03c7.85,7.85,15.76,15.76,24.05,22.62,22.35,19.11,46.08,34.1,73.28,43.25,9.19,3,18.97,5.59,28.3,8,38.88,9.96,78.69,15.7,118.73,18.07,54.79,3.39,110.08.39,164.27-8,3.09-.48,10.29-1.78,13.44-2.32Z"/><path d="M3872.7,1947.24l-4.88,1.1c-16.2,3.15-32.64,5.62-49.17,7.43,2.65-13.2,4.96-26.43,6.99-39.69.3-2.85,1.19-8.29,1.37-11.09l45.69,42.24Z"/><path d="M3829.15,1113.87l-1.55,25.98c10.32,98.81-2.2,200.27-38.26,293.05-63.91,157.73-186.12,313.47-355.69,359.4h-.03c-3.03-3.03-6.03-6.03-9.07-8.95-7.1-4.22-14.21-3.6-24.08-.59-3.45,6.93-5.41,12.31-5.05,17.81-84.75,13.38-173.82,1.75-250.39-37.9-13.14-6.54-31.27-19.83-43.58-28.21-40.58-29.13-78.9-61.71-112.93-98.43-5.05-5.41-9.99-10.91-14.83-16.47-21.67-44.47-40.49-90.4-59.63-136.36-7.76-17.98-15.49-35.97-23.28-53.93,67.54,100.36,138.05,187.28,244.18,256.96l19.56,12.84c3.39,2.32,6.18,3.86,9.07,5.62,28.33,15.96,60.26,26.31,92.33,32.7,87.87,17.9,179.91,3.15,256.78-43.7,78.75-47.68,140.19-118.67,189.21-196.97,49.97-79.07,81.87-168.2,92.75-261.18,2.41-19.8,3.89-39.69,4.58-59.63-5.02,5.17-10.23,10.32-15.64,15.34-51.16,48.6-117.04,74.82-186.39,82.64-6.72.77-15.81,1.81-21.91,2.29-4.1.09-17.48.74-21.88.86-20.18.8-45.93-.18-66.02-2.08-62.96-7.05-118.7-32.49-171.82-65.22-61.77-36.27-118.91-81.87-164.87-137.1-79.55-92.84-121.14-210.2-177.95-315.91,2.14-3.09,4.31-6.15,6.48-9.25,64.18,95.81,120.22,197.75,201.34,279.61,45.99,47.06,99.29,86.51,156.28,119.44,30.02,17.6,60.35,35.08,92.87,47.3,19.35,7.28,39.33,13.05,59.75,16.29,75.6,10.37,155.53,8.53,225.48-23.45,33.18-14.71,59.37-36,90.01-56.9l24.17-15.9Z"/><path class="cls-1" d="M3818.66,1955.77c-15.52,77.77-42.21,154.2-85.23,220.7-91.89,133.89-218.82,236.6-376.67,279.32,1.07-1.75,2.11-3.54,3.12-5.29,35.55-66.23,50.12-140.82,58.27-214.69,5.92-61.77,4.76-128.15-16.59-186.98-2.41-6.72-5.11-13.35-8.09-19.86-8.2-17.9-18.55-34.9-31.45-50.66-19.38-24.17-42.15-45.33-71.02-58.41-13.32-5.44-27.44-10.58-40.67-16.26-96.67-39.15-165.7-103.09-223.07-189.21-20.24-30.44-37.66-62.25-53.57-94.86,4.85,5.56,9.78,11.06,14.83,16.47,34.04,36.71,72.36,69.29,112.93,98.43,12.31,8.38,30.44,21.67,43.58,28.21,76.58,39.66,165.64,51.28,250.39,37.9.09,1.96.51,3.92,1.25,5.98,1.25,2.44,3.06,4.43,4.58,6.69l4.88,6.57c30.32,41.41,70.72,77.97,119.86,96.41,91.29,36.89,194.15,50.27,292.66,39.57Z"/><path class="cls-2" d="M3799.24,1175.91c-.68,19.95-2.17,39.83-4.58,59.63-10.88,92.99-42.78,182.11-92.75,261.18-49.02,78.3-110.47,149.29-189.21,196.97-76.87,46.85-168.91,61.59-256.78,43.7-32.08-6.39-64-16.74-92.33-32.7-2.88-1.75-5.68-3.3-9.07-5.62l-19.56-12.84c-106.13-69.68-176.64-156.6-244.18-256.96,0-.03-.03-.03-.03-.06-27.38-62.93-55.5-125.6-87.4-186.48-27.23-45.01-63.05-90.49-104.19-134.52,47.98-51.84,91.98-107.11,135.26-162.85,45.27-57.97,92.07-122.65,138.35-188.65,56.81,105.71,98.4,223.07,177.95,315.91,45.96,55.23,103.09,100.83,164.87,137.1,53.12,32.73,108.86,58.18,171.82,65.22,20.1,1.9,45.84,2.88,66.02,2.08,4.4-.12,17.78-.77,21.88-.86,6.09-.48,15.19-1.52,21.91-2.29,69.35-7.82,135.23-34.04,186.39-82.64,5.41-5.02,10.61-10.17,15.64-15.34Z"/><path d="M3734.23,2903.06c1.78.45,2.94,2.14,2.73,3.95-42.18,345.04-176.37,682.72-407.14,945.71-178.75,205.83-411.04,361.81-663.78,462.02-208.45,69.56-430.72,92.75-649.48,85.53-592.02-19.98-1117.24-328.75-1422.84-831.77,6.09,5.29,12.19,10.52,18.34,15.73-8.83-9.6-17.6-19.26-26.31-28.98-7.49-12.52-14.8-25.18-22-37.93-235.44-414.49-326.49-962.93-203.39-1426.37,62.81-237.82,188.62-458.45,359.4-634.94,47-49.61,97.95-94.89,148.43-140.67.12.12.27.24.39.33-42.87,52.71-88.02,103.27-129.28,157.17-151.85,193.76-262.28,419.54-313.38,660.6-33.98,156.78-44.14,317.96-37.16,478.04,20.07,471.98,168.49,960.87,514.37,1297.09,97.51,95.69,208.15,178.84,328.01,244.54,390.97,215.61,863.81,235.11,1292.13,136.24,40.82-9.84,81.45-20.36,120.54-34.36,149.71-58.65,292.28-136.24,421.21-232.44,72.8-53.95,139.93-113.5,201.28-177.8,58.24-53.51,112.4-111.51,162.96-171.41l-1.96-1.96-1.13.98c-16.32,14.77-32.79,29.46-49.47,43.97,149.56-193.35,255.62-419.01,318.41-659.53,11.44-45.01,22.77-91.35,32.05-137.1,2.5-4.37,4.99-8.74,7.43-13.14.62-1.13.48-2.53-.36-3.48Z"/><path d="M3734.23,2903.06c.83.95.98,2.35.36,3.48-2.44,4.4-4.93,8.77-7.43,13.14.92-4.61,1.84-9.22,2.73-13.82.39-1.93,2.29-3.21,4.22-2.82.03,0,.09.03.12.03Z"/><path d="M3734.23,2903.06s-.09-.03-.12-.03c-1.93-.39-3.83.89-4.22,2.82-.89,4.61-1.81,9.22-2.73,13.82-120.81,209.93-317.1,376.67-546.3,457-278.57,91.02-579.86,109.81-868.24,58.15-354.59-64.66-698.65-223.22-954.33-481.02-168.64-169.3-290.11-399.89-279.38-643.77,4.13-79.64,21.08-158.09,44.35-234.01,16.71-53.9,37.6-106.6,63.2-156.9,14.74-29.61,30.02-59.72,44.23-89.3,38.17-78.66,66.32-163.71,63.62-252.15-1.01-41.95-13.47-82.94-25-123.22.15-.03.3-.06.45-.12,6.84,18.55,14.66,39.15,19.89,56.96,34.69,108.59,7.82,226.73-35.11,329.08-10.7,25.65-22.06,51.34-33.06,76.67-43.19,94.29-72.3,195.19-86.86,297.78-61.24,409.79,250.3,737.98,578.25,932.34,215.37,125.89,456.11,208.69,703.26,242.69,16.14,11.65,33.15,22.3,50.92,30.89-8.06-9.04-15.87-18.13-23.43-27.29,233.98,28.78,473.02,13.85,701.06-49.5,91.8-25.3,179.17-66.23,259.58-117.07,92.72-58.92,175.87-132.43,246.2-216.92,28.39-33.8,54.52-69.53,78.84-106.6.92-1.43,2.85-1.84,4.28-.89.27.18.48.36.65.59Z"/><path class="cls-2" d="M3727.16,2919.68c-9.27,45.75-20.6,92.1-32.05,137.1-62.78,240.52-168.85,466.18-318.41,659.53-135.59,118.28-283.36,226.61-452.89,287.82-223.07,83.41-465.89,94.56-701.3,75.12-517.91-38.56-987.69-320.99-1264.15-761.55-32.88-53.39-62.58-108.77-86.21-166.8-14.03-35.02-26.4-70.96-37.72-107.05-37.6-121.47-62.28-247.09-76.43-373.49-12.9-121.23-16.23-244.45-7.16-366.54.03-.27.03-.54.06-.77,2.85-34.87,6.48-69.65,10.94-104.31,14.83-109.54,40.46-217.43,78.96-321.32,57.11-153.27,144.21-298.13,264.39-409.97l9.93-9.19c13.38,2.71,27.02,4.58,40.93,5.53,38.02,2.73,76.19-1.07,113.26-9.33,11.53,40.28,23.99,81.27,25,123.22,2.71,88.44-25.45,173.49-63.62,252.15-14.21,29.58-29.49,59.69-44.23,89.3-25.6,50.3-46.49,103-63.2,156.9-23.28,75.92-40.22,154.37-44.35,234.01-10.73,243.88,110.73,474.48,279.38,643.77,255.68,257.79,599.75,416.36,954.33,481.02,288.38,51.67,589.67,32.88,868.24-58.15,229.2-80.32,425.49-247.06,546.3-457Z"/><path d="M3444.39,22.9c12.13,19.38,6.87,44.2-5.2,62.04-10.14,14.77-20.16,29.01-30.53,43.25-27.41,38.2-65.13,89.72-93.34,127.26-12.19,16.68-24.44,33.89-36.68,51.49l-2.05-1.43c59.37-84.78,119.3-172.24,152.56-225.45,14.86-23.78,11.89-44.59,0-56.48-14.54-14.54-38.65-11.89-50.54-5.95-55.44,27.74-275.45,185.65-496.45,356.73-48.99,37.93-98.22,76.04-146.05,112.99-8.09-6.24-16.23-12.4-24.47-18.43,128.99-105.12,261.45-206.01,400.16-298.05,73.31-48.66,146.76-96.97,222.24-142.3,13.76-8.09,27.74-16.05,42.27-22.89,22.8-9.72,54.34-5.65,68.08,17.21Z"/><path d="M3429.14,23.59c11.89,11.89,14.86,32.7,0,56.48-33.26,53.21-93.19,140.67-152.56,225.45-1.1,1.58-2.23,3.15-3.33,4.76l-1.52-1.07c.24-.18,0-.62-.3-.51,23.4-32.97,45.51-66.83,66.86-101.16,26.75-42.36,57.49-90.82,81.84-134.16,17.63-30.02-.12-57.82-35.76-45.39-27.53,15.46-52.83,34.78-78.54,53.18-111.09,83.86-219.57,172.24-329.08,259.16-2.5-.42-4.99-.83-7.49-1.25-3.03-.48-4.31,3.72-1.75,5.14.83.48,1.69.95,2.56,1.4-69.15,54.79-138.74,108.98-209.7,161-8-6.54-16.08-12.96-24.26-19.26,47.83-36.95,97.06-75.06,146.05-112.99,220.99-171.08,441-328.99,496.45-356.73,11.89-5.95,36-8.59,50.54,5.95Z"/><path d="M3427.3,3671.36l1.96,1.96c-50.57,59.9-104.73,117.9-162.96,171.41,39.15-40.93,75.95-83.83,110.41-128.42,16.68-14.51,33.15-29.19,49.47-43.97l1.13-.98Z"/><path d="M3424.56,1783.35c3.03,2.91,6.03,5.92,9.07,8.95-11.42,3.09-23.01,5.71-34.84,7.76-1.1.18-2.23.36-3.33.51h-.03c-.36-5.5,1.61-10.88,5.05-17.81,9.87-3,16.97-3.63,24.08.59Z"/><path class="cls-1" d="M3384.37,27.99c35.64-12.43,53.39,15.37,35.76,45.39-24.35,43.34-55.08,91.8-81.84,134.16-21.34,34.33-43.46,68.19-66.86,101.16h-.03c-12.72,4.07-25.09,8.35-37.55,12.1-86.09,27.59-168.26,33.62-257.11,19.53,109.52-86.92,217.99-175.3,329.08-259.16,25.71-18.4,51.01-37.72,78.54-53.18Z"/><path d="M3401.55,2048.82c21.34,58.83,22.5,125.21,16.59,186.98-8.15,73.87-22.71,148.46-58.27,214.69-1.01,1.75-2.05,3.54-3.12,5.29-5.17,1.4-10.37,2.73-15.64,4.01,49.14-83.18,98.4-280.98,52.47-408.1l7.97-2.88Z"/><path d="M3401.55,2048.82l-7.97,2.88c-2.41-6.63-5.05-13.02-7.97-19.23l7.85-3.51c2.97,6.51,5.68,13.14,8.09,19.86Z"/><path d="M3393.59,2051.7c45.93,127.11-3.33,324.92-52.47,408.1-1.01.27-2.05.51-3.06.74.95-.12,1.93-.27,2.88-.42-1.96,3.3-3.89,6.42-5.86,9.33-36.68,54.97-84.13,98.72-135.47,131.13l-.62-13.97c-1.63.15-3.3.3-4.96.39,58.3-37.37,105.65-91.29,141.59-150.84,49.26-85.58,72.68-232.88,57.7-330.3-9.99-66.74-49.02-135.35-111.36-164.99-55.8-19.71-110.56-43.1-158.89-78.06-.54-.39-1.07-.77-1.58-1.16,7.19-1.13,11.44-1.61,11.44-1.61,56.48,20.81,107.02,59.45,147.42,66.65,16.86,7.97,32.28,18.61,45.63,31.63,17.39,16.97,46.2,45.63,59.63,74.14,2.91,6.21,5.56,12.6,7.97,19.23Z"/><path class="cls-6" d="M3393.32,2105.86c14.98,97.42-8.44,244.71-57.7,330.3-35.94,59.54-83.3,113.47-141.59,150.84-12.07.92-24.64,1.04-37.19.71-43.16-1.37-86.3-7.91-127.95-19.92-56.13-15.99-109.01-43.61-154.58-80.5,70.36,71.11,165.25,114.78,263.98,129.85-32.02,14.39-65.85,24.79-100.42,30.35-54.58,5.98-113.59-3.33-169.36-7.43-42.81-3.48-85.58-7.1-128.39-10.37h-.03c-10.11-11.77-23.34-31.24-29.28-56.18-14.86-62.43-37.19-235.86,80.26-445.91,23.16-41.44,140.64-217.01,282.41-255.65,19.68-5.35,37.19-8.59,48.01-10.29.51.39,1.04.77,1.58,1.16,48.34,34.96,103.09,58.35,158.89,78.06,62.34,29.64,101.37,98.25,111.36,164.99ZM3263.59,2087.49c.36-2.82-1.69-5.38-4.49-5.71-7.61-.92-14.51-.65-22,1.04-26.93,5.44-38.59,33.77-31.63,59.16,1.31,4.31,7.22,4.76,9.48.95,7.55-9.13,12.43-20.78,19.35-29.46,2.65-2.82,6.69-5.98,11.83-9.54,5.11-3.63,11.21-7.76,16.29-13.79.62-.74,1.04-1.63,1.16-2.65Z"/><path d="M3393.47,2028.96l-7.85,3.51c-13.44-28.51-42.24-57.17-59.63-74.14-13.35-13.02-28.78-23.66-45.63-31.63-40.4-7.19-90.94-45.84-147.42-66.65,0,0-4.25.48-11.44,1.61-96.32-70.48-165.4-171.32-219.98-275.99-36.59-72.68-82.05-160.2-119.5-232.56-12.93-24.76-26.55-50.74-40.37-74.91-13.59-22.21-31.12-44.77-48.22-65.34-15.22-17.63-31.01-35.17-47.39-52.56,5.98-3.92,11.44-8.59,16.29-13.82,12.57-12.52,24.82-25.27,36.83-38.26,41.14,44.03,76.96,89.51,104.19,134.52,31.9,60.88,60.02,123.55,87.4,186.48-12.13-17.93-24.08-36.33-36.18-55.08l-25.92,14.63c39.78,81.66,84.99,161.89,145.04,230.8,15.9,32.61,33.32,64.42,53.57,94.86,57.37,86.12,126.4,150.06,223.07,189.21,13.23,5.68,27.35,10.82,40.67,16.26,28.87,13.08,51.64,34.25,71.02,58.41,12.9,15.76,23.25,32.76,31.45,50.66Z"/><path d="M3356.75,2455.78c-.39.68-.8,1.4-1.25,2.08-4.85.83-9.69,1.58-14.57,2.26.06-.12.12-.21.18-.33,5.26-1.28,10.46-2.62,15.64-4.01Z"/><path d="M3340.94,2460.12c4.88-.68,9.72-1.43,14.57-2.26-6.12,10.29-12.66,20.63-19.17,30.5-35.23,53.57-81.3,100.33-134.99,135.5l-.71-1.07-1.01-22.21c51.34-32.4,98.78-76.16,135.47-131.13,1.96-2.91,3.89-6.03,5.86-9.33Z"/><path d="M3341.12,2459.8c-.06.12-.12.21-.18.33-.95.15-1.93.3-2.88.42,1.01-.24,2.05-.48,3.06-.74Z"/><path d="M3276.58,305.52l2.05,1.43c-47.65,68.43-95.34,142.36-140.4,209.49-50,72.5-104.1,152.53-158.98,231.04-3.95-5.92-7.97-11.8-11.98-17.66,50.48-68.7,98.99-134.61,140.82-188.98,16.47-21.43,89.98-123.31,165.16-230.56,1.1-1.61,2.23-3.18,3.33-4.76Z"/><path d="M3271.73,309.21l1.52,1.07c-75.18,107.26-148.7,209.13-165.16,230.56-41.83,54.37-90.34,120.28-140.82,188.98-3.95-5.74-7.97-11.47-12.01-17.15,22.33-28.95,44.83-57.55,67.48-85.64,18.28-22.86,39.66-48.81,59.84-73.16,4.67-3.15,9.25-6.42,13.76-9.81-2.65.92-5.29,1.87-7.94,2.79,6.09-7.37,12.07-14.57,17.75-21.43,48.16-60.05,98.46-125.45,143.94-187.37,6.78-9.07,13.44-18.22,19.98-27.47.56-.45,1.1-.89,1.66-1.37Z"/><path d="M3376.7,3716.31c-34.45,44.59-71.26,87.49-110.41,128.42-95.07,87.37-200.99,162.7-319.78,214.57-228.01,102.41-483.37,124.71-730.46,109.46-414.87-24.88-797.2-197.48-1077.49-506.52-87.78-96.49-163.95-203.63-225.15-318.8-49.41-91.53-86.68-189.81-108.62-291.56-54.01-244.48-74.26-498.08-53.95-748.06-9.07,122.09-5.74,245.31,7.16,366.54,14.15,126.4,38.82,252.03,76.43,373.49,11.33,36.09,23.69,72.03,37.72,107.05,23.63,58.03,53.33,113.41,86.21,166.8,276.46,440.56,746.24,723,1264.15,761.55,235.41,19.44,478.22,8.29,701.3-75.12,169.53-61.21,317.31-169.53,452.89-287.82Z"/><path d="M3271.44,308.7c.3-.12.54.33.3.51-.56.48-1.1.92-1.66,1.37.48-.62.92-1.25,1.34-1.87h.03Z"/><path d="M3271.41,308.7c-.42.62-.86,1.25-1.34,1.87-61.68,51.46-147.33,72.68-226.37,59.75-25.77-4.43-50.89-12.37-73.63-24.7,2.23-1.78,4.46-3.54,6.69-5.29,88.85,14.09,171.02,8.06,257.11-19.53,12.46-3.75,24.82-8.03,37.55-12.1Z"/><path d="M3259.1,2081.78c2.79.33,4.85,2.88,4.49,5.71-.12,1.01-.54,1.9-1.16,2.65-5.08,6.03-11.18,10.17-16.29,13.79-5.14,3.57-9.19,6.72-11.83,9.54-6.93,8.68-11.8,20.33-19.35,29.46-2.26,3.81-8.17,3.36-9.48-.95-6.96-25.39,4.7-53.72,31.63-59.16,7.49-1.69,14.39-1.96,22-1.04Z"/><path class="cls-2" d="M3270.07,310.58c-6.54,9.25-13.2,18.4-19.98,27.47-45.48,61.92-95.78,127.32-143.94,187.37-5.68,6.87-11.65,14.06-17.75,21.43-69.74,24.41-143.26,47.3-217.22,57.85-1.37.18-2.71.36-4.07.54h-.12c-36.48,4.79-72.95,9.16-109.81,5.26-37.84-4.46-75.03-12.99-112.34-21.14,28.36-20.1,55.68-39.54,81.16-57.79,11.12-8,22.21-16.02,33.24-24.14.39-.27.77-.54,1.13-.8,70.96-52.02,140.55-106.22,209.7-161,22.74,12.34,47.86,20.27,73.63,24.7,79.04,12.93,164.69-8.29,226.37-59.75Z"/><path class="cls-5" d="M2946.52,4059.3c118.79-51.87,224.71-127.2,319.78-214.57-61.36,64.3-128.48,123.84-201.28,177.8-128.93,96.2-271.5,173.79-421.21,232.44-39.09,14-79.73,24.52-120.54,34.36-428.31,98.87-901.15,79.37-1292.13-136.24-119.86-65.7-230.51-148.84-328.01-244.54-345.88-336.22-494.3-825.11-514.37-1297.09-6.99-160.08,3.18-321.26,37.16-478.04,51.1-241.06,161.54-466.84,313.38-660.6,41.26-53.9,86.42-104.46,129.28-157.17.77.68,1.55,1.34,2.32,1.99,51.9,46.43,110.08,91.14,174.86,118.76-118.46,164.06-199.92,352.18-245.9,548.65-16.26,70.57-28.87,141.89-38.02,213.68-4.73,34.63-8.35,69.41-10.94,104.31-.03.24-.03.51-.06.77-20.3,249.98-.06,503.58,53.95,748.06,21.94,101.76,59.22,200.03,108.62,291.56,61.21,115.16,137.37,222.3,225.15,318.8,280.3,309.04,662.62,481.64,1077.49,506.52,247.09,15.25,502.45-7.05,730.46-109.46Z"/><path d="M3200.63,2622.79l.71,1.07c-22,14.45-45.27,26.9-69.62,37.13-42.24,17.84-87.96,31.57-134.01,31.72-102.5-.12-204.05-9.48-306.31-10.76-50.92-1.07-122.74-4.1-172.66-1.93-56.78,2.14-114.39,6.39-170.9,13.29-1.46.18-2.91.33-4.37.51,3.45-8.44,6.99-16.83,10.61-25.18-9.69,8.65-18.88,17.78-27.56,27.35-78.6,10.7-153.75,31.09-231.75,49.32-21.17,4.88-45.01,8.26-66.32,11.98-138.71,22.27-280.39,29.22-415.8-15.34-47-17.66-90.61-40.13-132.7-67.66-29.88-20.01-58.8-42.39-80.17-72.62-49.26-72.65-73.4-160.74-75.36-247.84-2.02-58.95,6.21-117.45,12.99-175.69,6.45,85.91,6.78,173.19,33.77,255.65,12.49,39.63,30.2,77.47,53.3,111.92,7.61,10.73,14.86,21.67,23.84,31.33,8.12,8.8,18.34,17.06,28.98,24.85,33.44,23.9,70.69,42.57,108.65,59.1,25.12,11,50.09,20.01,76.76,25.51,133.92,31.78,272.63,15.67,407.11-8.12,59.72-12.43,120.78-29.13,181.9-39.18,87.99-15.01,176.73-20.16,265.94-20.9,74.35,1.01,148.43,5.68,222.42,11.39h.03c5.71,6.66,10.46,10.85,12.31,12.19,20.81,14.86,43.37,16.94,104.05,20.81,92.36,5.86,138.56,8.12,172.42,2.97,44.23-6.75,91-21.82,136.03-45.19,11.89,1.19,23.78,1.96,35.7,2.32Z"/><path d="M3199.62,2600.58l1.01,22.21c-11.92-.36-23.81-1.13-35.7-2.32,11.68-6.06,23.28-12.69,34.69-19.89Z"/><path d="M3198.99,2586.61l.62,13.97c-11.42,7.19-23.01,13.82-34.69,19.89-8.89-.89-17.78-1.99-26.61-3.33,18.58-8.32,36.53-18.01,53.69-28.84.68-.42,1.34-.86,2.02-1.31,1.66-.09,3.33-.24,4.96-.39Z"/><path d="M3194.03,2587c-.68.45-1.34.89-2.02,1.31-17.15,10.82-35.11,20.51-53.69,28.84h-.03c-98.72-15.07-193.61-58.74-263.98-129.85,45.57,36.89,98.46,64.51,154.58,80.5,41.65,12.01,84.78,18.55,127.95,19.92,12.54.33,25.12.21,37.19-.71Z"/><path d="M3138.32,2617.14c8.83,1.34,17.72,2.44,26.61,3.33-45.04,23.37-91.8,38.44-136.03,45.19-33.86,5.14-80.06,2.88-172.42-2.97-60.67-3.86-83.24-5.95-104.05-20.81-1.84-1.34-6.6-5.53-12.31-12.19,42.81,3.27,85.58,6.9,128.39,10.37,55.77,4.1,114.78,13.41,169.36,7.43,34.57-5.56,68.4-15.96,100.42-30.35h.03Z"/><path class="cls-3" d="M3121.49,1861.65c-10.82,1.69-28.33,4.93-48.01,10.29-141.77,38.65-259.25,214.21-282.41,255.65-117.45,210.05-95.13,383.48-80.26,445.91,5.95,24.94,19.17,44.41,29.28,56.18-73.99-5.71-148.07-10.37-222.42-11.39-89.21.74-177.95,5.89-265.94,20.9-61.12,10.05-122.18,26.75-181.9,39.18-134.49,23.78-273.19,39.89-407.11,8.12-26.67-5.5-51.64-14.51-76.76-25.51-37.96-16.53-75.21-35.2-108.65-59.1-10.64-7.79-20.87-16.05-28.98-24.85-8.98-9.66-16.23-20.6-23.84-31.33-23.1-34.45-40.82-72.3-53.3-111.92-26.99-82.46-27.32-169.74-33.77-255.65-6.78,58.24-15.01,116.74-12.99,175.69,1.96,87.1,26.1,175.18,75.36,247.84,21.37,30.23,50.3,52.62,80.17,72.62,42.09,27.53,85.7,50,132.7,67.66,135.41,44.56,277.09,37.6,415.8,15.34,21.31-3.72,45.16-7.1,66.32-11.98,78-18.22,153.15-38.62,231.75-49.32-73.31,80.5-111.66,191.5-112.16,300.07-.27,147.15,69.8,290.35,184.61,380.93,5.62,4.4,11.33,8.71,17.15,12.87-247.15-34.01-487.88-116.8-703.26-242.69-327.95-194.36-639.49-522.55-578.25-932.34,14.57-102.59,43.67-203.48,86.86-297.78,11-25.33,22.35-51.01,33.06-76.67,42.93-102.35,69.8-220.49,35.11-329.08-5.23-17.81-13.05-38.41-19.89-56.96,14.89-3.3,29.64-7.34,44.12-11.98.62-.21,1.07-.8,1.04-1.49-.03-.83-.71-1.49-1.55-1.46-41.11,1.25-82.55,1.43-122.89-4.73-40.87-5.32-78.75-18.76-114.18-37.4l-1.28-1.13-.24.33c-50.89-26.96-96.73-64.54-139.24-103.96-14.24-13.14-30.14-28.27-43.79-41.77-78-81.78-133.8-206.25-168.05-313.98-10.29-33.5-19.2-68.19-25.18-102.77,105.74-6.36,212.91,2.68,316.95,20.99,70.07,13.56,143.7,29.67,204.26,66.47,97.12,59.9,165.31,141.47,220.34,240.52.33.56,1.01.86,1.66.71.8-.21,1.31-1.01,1.1-1.81-8.68-37.1-22.06-73.49-40.16-107.82-15.34-28.95-34.39-56.99-56.36-82.91l.95-.77c47.8-33.21,96.73-64.51,147.71-91.56,125.18-67.15,265.88-109.75,408.42-107.49,126.49,2.38,250.3,40.04,365.7,99.26-4.34,19.86-2.82,40.87,2.91,61.54,4.19,17.84,14.18,33.32,24.5,48.07,10.32,14.57,21.67,28.3,33.62,41.5,20.69,22.86,44.06,44.14,68.88,62.43,31.99,24.11,65.19,46.46,100.27,65.73,9.9,5.44,20.3,11.5,30.83,15.7,24.64,9.22,51.34,12.04,77.47,9.81,13.73-1.34,26.96-6.39,38.47-14.06,16.38,17.39,32.16,34.93,47.39,52.56,17.09,20.57,34.63,43.13,48.22,65.34,13.82,24.17,27.44,50.15,40.37,74.91,37.46,72.36,82.91,159.87,119.5,232.56,54.58,104.67,123.67,205.5,219.98,275.99ZM2526.29,1856.33c.24-.59.06-1.31-.45-1.72-.65-.54-1.61-.42-2.11.24-49.73,61.59-121.08,97.56-195.81,116.47-72.36,17.98-150.75,20.01-222.57.42-148.37-41.92-270.31-156.84-331.01-297.87-.27-.59-.86-.95-1.55-.89-.8.09-1.4.83-1.34,1.66,2.17,20.21,6.45,40.31,12.34,60.02,36.21,120.93,130.65,221.23,245.78,272.03,135.79,61.57,305.39,40.25,421.62-52.65,31.96-26.25,59.72-59.31,75.09-97.71ZM1811.92,2142.49c14.45-17.39,31.93-38.44,31.24-66.92-.33-14.12-4.99-24.79-7.28-29.4-2.26-4.49-15.58-31.3-43.91-36.68-23.13-4.37-47.92,7.1-62.67,28.89-1.72-3.48-18.22-35.08-49.14-38.47-14.45-1.58-26.64,3.63-32.82,6.27-6.72,2.88-21.94,9.66-32.49,26.25-8.62,13.56-9.69,26.67-10.08,32.4-1.81,26.61,11.33,46.43,16.23,53.09,10.4,16.14,24.61,35.23,43.61,54.67,18.34,18.82,36.42,33.12,51.87,43.76,12.31-7.08,29.61-17.78,49.11-32.55,18.88-14.27,32.19-24.32,46.32-41.32ZM1332.65,1336.94c16.5-9.01,26.81-26.28,25.54-45.04-3.21-47.5-53.95-106.36-127.8-163.14-115.94-89.18-273.61-118.26-344.84-121.88,14.86,65.4,89.18,169.45,172.42,240.79,98.69,84.6,211.72,123.61,274.68,89.27Z"/><path d="M3088.41,546.85c2.65-.92,5.29-1.87,7.94-2.79-4.52,3.39-9.1,6.66-13.76,9.81,1.93-2.35,3.89-4.7,5.83-7.02Z"/><path d="M3088.41,546.85c-1.93,2.32-3.89,4.67-5.83,7.02-28.36,19.2-59.51,34.13-91.35,46.73-32.85,12.75-67.12,22.56-102.05,28.75-5.74-6.42-11.53-12.78-17.45-19.06l-.24-.27c-1.43-1.61-2.88-3.21-4.37-4.79,1.37-.18,2.71-.36,4.07-.54,73.96-10.55,147.48-33.44,217.22-57.85Z"/><path class="cls-1" d="M3082.58,553.86c-20.18,24.35-41.56,50.3-59.84,73.16-22.65,28.09-45.16,56.69-67.48,85.64-1.46,1.87-2.91,3.72-4.34,5.59-34.42,44.65-68.55,90.04-102.44,135.41-18.64,2.65-37.75,3.39-56.39,4.67-40.07,2.32-83.12,3.12-123.37,3.42-46.34-.12-93.73.24-139.42-5.65-66.86-8.89-133.18-25.18-195.72-50.63,3.06-2.35,6.18-4.61,9.33-6.75,89.66-60.49,199.02-136.54,296.62-205.62.21.33.56.62.98.83,18.01,8.44,36.53,15.61,55.35,22.03,28.89,9.63,58.09,18.13,88.8,20.07,34.63,1.84,69.41-.59,103.6-6.54.3-.06.62-.12.92-.15,34.93-6.18,69.21-15.99,102.05-28.75,31.84-12.6,62.99-27.53,91.35-46.73Z"/><path d="M2979.25,747.48c-2.17,3.09-4.34,6.15-6.48,9.25-2.14-4.01-4.34-8.03-6.54-12.01-1.43-2.56-2.85-5.11-4.28-7.64,1.78-2.41,3.54-4.85,5.32-7.25,4.01,5.86,8.03,11.74,11.98,17.66Z"/><path d="M2976.75,340.33c-2.23,1.75-4.46,3.51-6.69,5.29-.86-.45-1.72-.92-2.56-1.4-2.56-1.43-1.28-5.62,1.75-5.14,2.5.42,4.99.83,7.49,1.25Z"/><path d="M2966.23,744.71c2.2,3.98,4.4,8,6.54,12.01-46.29,65.99-93.08,130.68-138.35,188.65-43.28,55.74-87.28,111-135.26,162.85-3.98-4.28-8.06-8.56-12.16-12.81,55.11-63.59,123.61-153.6,193.41-247.75,27.23-36.68,54.64-73.99,81.54-110.59,1.43,2.53,2.85,5.08,4.28,7.64Z"/><path d="M2967.27,729.82c-1.78,2.41-3.54,4.85-5.32,7.25-3.6-6.33-7.25-12.6-11.03-18.82,1.43-1.87,2.88-3.72,4.34-5.59,4.04,5.68,8.06,11.42,12.01,17.15Z"/><path d="M2950.92,718.25c3.78,6.21,7.43,12.49,11.03,18.82-26.9,36.59-54.31,73.9-81.54,110.59l-.98-.74c-10.05,3.15-20.42,5.26-30.95,6.75,33.89-45.36,68.02-90.76,102.44-135.41Z"/><path d="M2914.06,1483.2c19.14,45.96,37.96,91.89,59.63,136.36-60.05-68.91-105.26-149.14-145.04-230.8l25.92-14.63c12.1,18.76,24.05,37.16,36.18,55.08,0,.03.03.03.03.06,7.79,17.96,15.52,35.94,23.28,53.93Z"/><path d="M2889.17,629.34c-.3.03-.62.09-.92.15-5.38-6.51-10.88-12.9-16.53-19.2,5.92,6.27,11.71,12.63,17.45,19.06Z"/><path d="M2879.42,846.91l.98.74c-69.8,94.15-138.29,184.16-193.41,247.75-4.1-4.28-8.26-8.53-12.49-12.75v-.03c18.73-22.77,44.71-56.66,62.43-79.85,35.17-46.58,70.48-94.12,106.04-141.74,1.01-.24,1.99-.51,3-.77,11.3-3.45,24.02-6.27,33.44-13.35Z"/><path d="M2871.72,610.29c5.65,6.3,11.15,12.69,16.53,19.2-34.19,5.95-68.97,8.38-103.6,6.54-30.71-1.93-59.9-10.43-88.8-20.07-18.82-6.42-37.34-13.59-55.35-22.03-.42-.21-.77-.51-.98-.83,1.78-1.25,3.54-2.5,5.32-3.75,37.31,8.15,74.5,16.68,112.34,21.14,36.86,3.89,73.34-.48,109.81-5.26,1.49,1.61,3,3.18,4.49,4.79l.24.27Z"/><path d="M2867.12,605.23c1.49,1.58,2.94,3.18,4.37,4.79-1.49-1.61-3-3.18-4.49-4.79h.12Z"/><path d="M2879.42,846.91c-9.42,7.08-22.15,9.9-33.44,13.35-1.01.27-1.99.54-3,.77,1.81-2.47,3.66-4.9,5.5-7.37,10.52-1.49,20.9-3.6,30.95-6.75Z"/><path d="M2848.48,853.66c-1.84,2.47-3.69,4.9-5.5,7.37-16.32,4.31-32.88,7.34-49.47,10.26-82.37,12.46-166.15,18.85-249.53,13.73-54.04-4.99-107.46-18.64-156.9-40.93-20.75-9.57-41.05-20.24-59.31-34.13,1.9-1.55,3.83-3.06,5.8-4.49,62.55,25.45,128.87,41.74,195.72,50.63,45.69,5.89,93.08,5.53,139.42,5.65,40.25-.3,83.3-1.1,123.37-3.42,18.64-1.28,37.75-2.02,56.39-4.67Z"/><path class="cls-5" d="M2793.51,871.29c16.59-2.91,33.15-5.95,49.47-10.26-35.55,47.62-70.87,95.16-106.04,141.74-17.72,23.19-43.7,57.08-62.43,79.85v.03c-.59.74-1.19,1.46-1.78,2.17-10.97,13.41-22.09,26.61-33.62,39.24-4.28,4.88-9.3,10.11-14.92,13.47-.39.27-.77.51-1.16.71-12.72,7.94-28.45,8.65-43.1,8.77-13.97-.18-28-2.11-41.29-6.33-9.96-3.39-18.76-8.26-28.33-12.75-38.26-19.53-76.13-41.05-109.13-68.73-37.75-33.92-109.04-80.03-121.73-129.82-5.05-18.82-6.06-37.72-1.58-55.2v-.03c3.57-13.97,10.64-26.96,21.94-38.29,5.08-5.47,10.46-10.76,16.08-15.79,3.86-3.51,7.82-6.9,11.89-10.11,18.25,13.88,38.56,24.55,59.31,34.13,49.44,22.3,102.86,35.94,156.9,40.93,83.38,5.11,167.16-1.28,249.53-13.73Z"/><path d="M2760.37,506.63c-.36.27-.74.54-1.13.8-8.2-6.36-16.5-12.6-24.88-18.7.59-.42,1.16-.89,1.75-1.37,8.17,6.3,16.26,12.72,24.26,19.26Z"/><path d="M2734.35,488.73c8.38,6.09,16.68,12.34,24.88,18.7-11.03,8.12-22.12,16.14-33.24,24.14-25.48,18.25-52.8,37.69-81.16,57.79-.86-.18-1.72-.39-2.59-.56-2.76-.56-4.07,2.53-2.73,4.31-97.59,69.09-206.96,145.13-296.62,205.62-3.15,2.14-6.27,4.4-9.33,6.75-1.96-.77-3.92-1.58-5.86-2.38-.95-.42-2.05-.3-2.85.33l-1.13-1.28c6.27-5.5,11.53-9.6,14.42-11.59,43.22-29.64,208.69-156.84,396.2-301.82Z"/><path d="M2736.11,487.36c-.59.48-1.16.95-1.75,1.37-8.32-6.06-16.74-11.98-25.21-17.75.83-.68,1.66-1.37,2.5-2.05,8.23,6.03,16.38,12.19,24.47,18.43Z"/><path d="M2709.15,470.98c8.47,5.77,16.89,11.68,25.21,17.75-187.52,144.98-352.98,272.18-396.2,301.82-2.88,1.99-8.15,6.09-14.42,11.59-4.67,4.07-9.9,8.92-15.13,14.24-2.38-1.19-4.76-2.38-7.13-3.51,10.79-12.34,22.65-23.66,35.79-33.59,120.6-94.15,235.17-196.32,353.55-293.29,6.09-5.02,12.22-10.02,18.34-15.01Z"/><path d="M2711.64,468.93c-.83.68-1.66,1.37-2.5,2.05-226.28-154.49-510.6-216.74-782.54-215.34-89.33,1.4-179.82,10.05-267.63,26.58-18.76,3.39-40.7,8.71-59.19,12.57-17.66,4.55-41.11,10.2-58.62,15.1-158.06,44.83-314.01,116.11-428.79,236.45l-2.35,2.38-2.17,2.44-4.31,4.9-4.31,4.9-2.17,2.44-1.99,2.59c-44.74,56.18-73.66,123.9-90.43,193.52-3.72,15.87-6.78,31.93-8.5,48.28-.36-.03-.68-.06-1.04-.09-.95-16.44-.33-33.03,1.16-49.53,6.18-65.28,24.94-130.06,56.99-187.37,4.99-9.48,11.24-18.43,17-27.56,3.98-5.35,8.92-12.19,12.93-17.54,77.2-97.45,183.03-169.45,295.61-220.34,64.21-28.87,131.42-51.55,199.59-69.09,4.55-1.16,9.25-2.59,13.64-3.42l27.5-6.15c8.35-1.9,19.38-4.43,27.56-5.86,202.18-40.49,413.65-29.01,611.16,29.34,161.27,46.79,317.67,119.12,453.4,218.73Z"/><path class="cls-2" d="M2709.15,470.98c-6.12,4.99-12.25,9.99-18.34,15.01-118.37,96.97-232.94,199.14-353.55,293.29-13.14,9.93-25,21.25-35.79,33.59-343.88-168.46-668.42-100.63-956.06,154.2l1.84,2.32-.95.77c-48.87-57.61-112.28-104.76-181.93-128.27-54.61-18.58-111.21-28.45-168.23-34.1,1.72-16.35,4.79-32.4,8.5-48.28,16.77-69.62,45.69-137.34,90.43-193.52l1.99-2.59,2.17-2.44,4.31-4.9,4.31-4.9,2.17-2.44,2.35-2.38c114.78-120.34,270.73-191.62,428.79-236.45,17.51-4.9,40.96-10.55,58.62-15.1,18.49-3.86,40.43-9.19,59.19-12.57,87.81-16.53,178.3-25.18,267.63-26.58,271.94-1.4,556.26,60.85,782.54,215.34Z"/><path d="M2687,1095.4c4.1,4.25,8.17,8.53,12.16,12.81-12.01,12.99-24.26,25.74-36.83,38.26-4.85,5.23-10.32,9.9-16.29,13.82-3.57-3.81-7.16-7.61-10.85-11.39,4.16-2.73,8.03-5.92,11.56-9.51,12.37-12.6,25.83-27.41,40.25-44Z"/><path d="M2674.51,1082.65c4.22,4.22,8.38,8.47,12.49,12.75-14.42,16.59-27.88,31.39-40.25,44-3.54,3.6-7.4,6.78-11.56,9.51-3.6-3.81-7.28-7.61-11-11.39,5.62-3.36,10.64-8.59,14.92-13.47,11.53-12.63,22.65-25.83,33.62-39.24.59-.71,1.19-1.43,1.78-2.17Z"/><path d="M2644.85,589.36c-1.78,1.25-3.54,2.5-5.32,3.75-1.34-1.78-.03-4.88,2.73-4.31.86.18,1.72.39,2.59.56Z"/><path d="M2635.18,1148.91c3.69,3.78,7.28,7.58,10.85,11.39-11.5,7.67-24.73,12.72-38.47,14.06-26.13,2.23-52.83-.59-77.47-9.81-10.52-4.19-20.93-10.26-30.83-15.7-35.08-19.26-68.28-41.62-100.27-65.73-24.82-18.28-48.19-39.57-68.88-62.43-11.95-13.2-23.31-26.93-33.62-41.5-10.32-14.74-20.3-30.23-24.5-48.07-5.74-20.66-7.25-41.68-2.91-61.54,1.43.71,2.85,1.46,4.25,2.2-6.09,25.8.15,48.96,2.38,58.47,3.18,13.53,14.18,51.78,118.91,136.75,61.89,50.18,133.77,83.24,133.77,83.24,0,0,29.7,14.24,74.53,9.93,11.56-1.1,22.65-4.99,32.25-11.27Z"/><path d="M2624.18,1137.53c3.72,3.78,7.4,7.58,11,11.39-9.6,6.27-20.69,10.17-32.25,11.27-44.83,4.31-74.53-9.93-74.53-9.93,0,0-71.88-33.06-133.77-83.24-104.73-84.96-115.73-123.22-118.91-136.75-2.23-9.51-8.47-32.67-2.38-58.47,1.52.77,3.03,1.55,4.52,2.35v.03c-4.49,17.48-3.48,36.39,1.58,55.2,12.69,49.79,83.98,95.9,121.73,129.82,33,27.68,70.87,49.2,109.13,68.73,9.57,4.49,18.37,9.36,28.33,12.75,13.29,4.22,27.32,6.15,41.29,6.33,14.66-.12,30.38-.83,43.1-8.77.39-.21.77-.45,1.16-.71Z"/><path d="M2525.85,1854.61c.51.42.68,1.13.45,1.72-15.37,38.41-43.13,71.46-75.09,97.71-116.23,92.9-285.83,114.21-421.62,52.65-115.13-50.8-209.58-151.1-245.78-272.03-5.89-19.71-10.17-39.8-12.34-60.02-.06-.83.54-1.58,1.34-1.66.68-.06,1.28.3,1.55.89,60.7,141.03,182.64,255.95,331.01,297.87,71.82,19.59,150.21,17.57,222.57-.42,74.73-18.91,146.08-54.88,195.81-116.47.51-.65,1.46-.77,2.11-.24Z"/><path d="M2443.62,3393.44c7.55,9.16,15.37,18.25,23.43,27.29-17.78-8.59-34.78-19.23-50.92-30.89,9.16,1.31,18.31,2.5,27.5,3.6Z"/><path d="M2443.62,3393.44c-9.19-1.1-18.34-2.29-27.5-3.6-5.83-4.16-11.53-8.47-17.15-12.87-114.81-90.58-184.87-233.78-184.61-380.93.51-108.56,38.85-219.57,112.16-300.07,5.62-.8,11.27-1.52,16.94-2.17-38.2,93.85-63.2,193.85-61.03,295.19-.3,6.93.68,17.63,1.01,24.64.59,15.99,2.35,33.24,4.61,49.05,13.7,99.71,55.92,193.79,113.56,275.78,13.11,18.73,27.11,37.01,42,54.97Z"/><path d="M2354.08,2668.63c-3.63,8.35-7.16,16.74-10.61,25.18-5.68.65-11.33,1.37-16.94,2.17,8.68-9.57,17.87-18.7,27.56-27.35Z"/><path d="M2327.71,803.1c1.93.8,3.89,1.61,5.86,2.38-1.96,1.43-3.89,2.94-5.8,4.49-.98-.74-1.96-1.49-2.94-2.26-1.19-.95-1.37-2.68-.42-3.83.12-.18.3-.33.45-.45.8-.62,1.9-.74,2.85-.33Z"/><path d="M2324.83,807.7c.98.77,1.96,1.52,2.94,2.26-4.07,3.21-8.03,6.6-11.89,10.11-2.44-1.25-4.85-2.47-7.28-3.69,5.23-5.32,10.46-10.17,15.13-14.24l1.13,1.28c-.15.12-.33.27-.45.45-.95,1.16-.77,2.88.42,3.83Z"/><path d="M2308.6,816.38c2.44,1.22,4.85,2.44,7.28,3.69-5.62,5.02-11,10.32-16.08,15.79-11.3,11.33-18.37,24.32-21.94,38.29-1.49-.8-3-1.58-4.52-2.35,1.25-5.2,2.97-10.52,5.35-15.84,5.86-13.14,17.93-27.53,29.91-39.57Z"/><path d="M2301.47,812.88c2.38,1.13,4.76,2.32,7.13,3.51-11.98,12.04-24.05,26.43-29.91,39.57-2.38,5.32-4.1,10.64-5.35,15.84-1.4-.74-2.82-1.49-4.25-2.2,3.27-14.98,9.84-29.28,20.45-42.24,3.83-4.96,7.79-9.78,11.92-14.48Z"/><path d="M2301.47,812.88c-4.13,4.7-8.09,9.51-11.92,14.48-10.61,12.96-17.18,27.26-20.45,42.24-115.4-59.22-239.22-96.88-365.7-99.26-142.54-2.26-283.24,40.34-408.42,107.49-50.98,27.05-99.91,58.35-147.71,91.56l-1.84-2.32c287.64-254.82,612.17-322.66,956.06-154.2Z"/><path class="cls-6" d="M1843.16,2075.57c.68,28.48-16.8,49.53-31.24,66.92-14.12,17-27.44,27.05-46.32,41.32-19.5,14.77-36.8,25.48-49.11,32.55-15.46-10.64-33.53-24.94-51.87-43.76-19-19.44-33.21-38.53-43.61-54.67-4.9-6.66-18.04-26.49-16.23-53.09.39-5.74,1.46-18.85,10.08-32.4,10.55-16.59,25.77-23.37,32.49-26.25,6.18-2.65,18.37-7.85,32.82-6.27,30.92,3.39,47.41,34.99,49.14,38.47,14.74-21.79,39.54-33.26,62.67-28.89,28.33,5.38,41.65,32.19,43.91,36.68,2.29,4.61,6.96,15.28,7.28,29.4Z"/><path d="M1442.82,1160.89c.21.8-.3,1.61-1.1,1.81-.65.15-1.34-.15-1.66-.71-55.03-99.05-123.22-180.62-220.34-240.52-60.55-36.8-134.19-52.91-204.26-66.47-104.05-18.31-211.21-27.35-316.95-20.99-.92-5.44-1.81-10.91-2.59-16.35l-13.94,17.45c5.5-.42,11.03-.8,16.53-1.1,5.98,34.57,14.89,69.26,25.18,102.77,34.25,107.73,90.04,232.2,168.05,313.98,13.64,13.5,29.55,28.63,43.79,41.77,42.51,39.42,88.35,76.99,139.24,103.96l-19.44,26.75c-3.24,4.37-6.45,8.77-9.57,13.17-64.78-27.62-122.95-72.33-174.86-118.76-.77-.65-1.55-1.31-2.32-1.99.71-.86,1.4-1.72,2.11-2.59-.83.74-1.66,1.52-2.5,2.26-65.96-56.78-107.11-131.69-136.09-211.81.59-.54,1.22-1.01,1.84-1.52-.68.39-1.34.74-1.99,1.13-18.58-51.28-32.19-104.7-44.17-156.84-9.04-41.41-17.54-82.64-22.83-124.77l-1.84-16.05,15.76-1.43c76.58-5.14,152.29-4.73,228.9-2.17,29.07,1.25,58.24,2.97,87.34,5.83v.03c.15,1.96.27,3.95.45,5.92.18-1.93.36-3.89.59-5.83v-.03c57.02,5.65,113.62,15.52,168.23,34.1,69.65,23.51,133.06,70.66,181.93,128.27,21.97,25.92,41.02,53.95,56.36,82.91,18.1,34.33,31.48,70.72,40.16,107.82Z"/><path class="cls-4" d="M1358.19,1291.9c1.28,18.76-9.04,36.03-25.54,45.04-62.96,34.33-175.99-4.67-274.68-89.27-83.24-71.35-157.55-175.39-172.42-240.79,71.23,3.63,228.9,32.7,344.84,121.88,73.84,56.78,124.59,115.64,127.8,163.14Z"/><path d="M1314.91,1440.86c.03.68-.42,1.28-1.04,1.49-14.48,4.64-29.22,8.68-44.12,11.98-.74-2.02-1.49-4.04-2.2-6,.56,2.02,1.16,4.07,1.75,6.12-37.07,8.26-75.24,12.07-113.26,9.33-13.91-.95-27.56-2.82-40.93-5.53l14.63-13.56-53.45-47.41c35.43,18.64,73.31,32.08,114.18,37.4,40.34,6.15,81.78,5.98,122.89,4.73.83-.03,1.52.62,1.55,1.46Z"/><path d="M1269.75,1454.33c-.15.06-.3.09-.45.12-.59-2.05-1.19-4.1-1.75-6.12.71,1.96,1.46,3.98,2.2,6Z"/><path d="M1129.74,1444.7l-14.63,13.56c-23.9-4.85-47.03-12.34-69.35-21.85,3.12-4.4,6.33-8.8,9.57-13.17l19.44-26.75c.51.3,1.01.56,1.52.8l53.45,47.41Z"/><path d="M1115.11,1458.26l-9.93,9.19c-120.19,111.83-207.29,256.69-264.39,409.97-38.5,103.9-64.12,211.78-78.96,321.32,9.16-71.79,21.76-143.11,38.02-213.68,45.99-196.47,127.44-384.58,245.9-548.65,22.33,9.51,45.45,17,69.35,21.85Z"/><path d="M1076.29,1397.28c-.51-.24-1.01-.51-1.52-.8l.24-.33,1.28,1.13Z"/><path d="M996.14,807.79v.03c-.24,1.93-.42,3.89-.59,5.83-.18-1.96-.3-3.95-.45-5.92v-.03c.36.03.68.06,1.04.09Z"/><path d="M870.69,1313.07c-.71.86-1.4,1.72-2.11,2.59-.12-.09-.27-.21-.39-.33.83-.74,1.66-1.52,2.5-2.26Z"/><path class="cls-1" d="M868.2,1315.33c-50.48,45.78-101.43,91.05-148.43,140.67-170.78,176.49-296.59,397.13-359.4,634.94-123.1,463.45-32.05,1011.89,203.39,1426.37,7.19,12.75,14.51,25.42,22,37.93-227.44-253.78-414.61-554.47-485.8-890.15-75.12-346.53,17.45-707,188.08-1011.59,87.13-155.03,194.21-298.64,315.97-428.25,40.64-42.63,82.14-84.75,128.09-121.73,28.98,80.11,70.13,155.03,136.09,211.81Z"/><path d="M761.83,2198.73c-4.46,34.66-8.09,69.44-10.94,104.31,2.59-34.9,6.21-69.68,10.94-104.31Z"/><path d="M733.95,1102c-.62.51-1.25.98-1.84,1.52-.09-.12-.12-.24-.15-.39.65-.39,1.31-.74,1.99-1.13Z"/><path d="M731.96,1103.13c.03.15.06.27.15.39-45.96,36.98-87.46,79.1-128.09,121.73-121.76,129.61-228.84,273.22-315.97,428.25-170.63,304.59-263.21,665.06-188.08,1011.59,71.2,335.68,258.36,636.37,485.8,890.15,2.62,4.43,5.29,8.86,7.97,13.26-266.53-231.22-479.68-542.76-560.98-888.73-101.46-421.89,48.37-870.21,308.69-1205.74,101.91-130.92,219.36-251.14,354.59-347.66,11.68-8.17,23.54-16.17,35.94-23.25Z"/><path d="M695.93,817.66c.77,5.44,1.66,10.91,2.59,16.35-5.5.3-11.03.68-16.53,1.1l13.94-17.45Z"/><path d="M612.07,3584.23c-6.15-5.2-12.25-10.43-18.34-15.73-2.68-4.4-5.35-8.83-7.97-13.26,8.71,9.72,17.48,19.38,26.31,28.98Z"/></g></svg>